<svg id="Layer_1" data-name="Layer 1" xmlns="http://www.w3.org/2000/svg" viewBox="0 0 713.87 807.32"><defs><style>.cls-1{fill:#fefdfe;}.cls-2{fill:#33017c;}.cls-3{fill:#9e74d9;}</style></defs><title>C#</title><path class="cls-1" d="M753,402.28q0,211.07.07,422.12c0,2.83-.61,3.5-3.47,3.49q-392.55-.1-785.08,0c-3.27,0-3.59-.9-3.59-3.79q.12-422.31,0-844.63c0-3.06.59-3.69,3.68-3.69q392.36.14,784.7,0c3.46,0,3.77,1,3.77,4Q753,191,753,402.28ZM307,785.33h0c.09,1.07.54,1.37,1.45.66l1.7,1a7.45,7.45,0,0,0,4.67,3c1.51-.13,2.37,1.11,3.54,1.69,1.05,1.24,1.8,3,4,2.17l.93.46c.05,2.88,2.84,2,4.22,3.08l2.18.32c.17.79.57,1.28,1.46,1.16l.25.24c4,2.86,8.7,3.81,13.48,4.37,7.08,0,14.17,0,21.24.12,6.42.14,12.17-2.29,17.83-4.67,8.37-3.52,15.72-9,23.7-13.34,7.74-4.18,15.29-8.76,22.92-13.16,8.15-4.7,16.33-9.35,24.46-14.09,8.45-4.92,16.84-10,25.3-14.87,5.14-3,10.38-5.82,15.53-8.79,8.15-4.69,16.24-9.47,24.4-14.15q10.63-6.09,21.35-12.06c10.28-5.73,20.32-11.9,30.61-17.64,7-3.93,13.77-8.36,20.75-12.37,9.79-5.62,19.7-11,29.51-16.6,5.59-3.18,11.07-6.55,16.64-9.75s11.23-6,16.6-9.45c6.07-3.85,12.58-6.92,18.67-10.7,4.62-2.88,9.56-5.28,13.71-8.93a64.67,64.67,0,0,0,16.54-22.61c3.27-7.37,6.69-14.82,6.69-23.21q0-169.17.08-338.33c0-5.34-2-10-3.14-14.92s-4-8.89-5.32-13.57a.66.66,0,0,0-.89-.69l-1.19-.53c-.59-1.55-2-2.45-2.88-3.85a53.82,53.82,0,0,0-17.11-17.19c-5.59-3.52-11.41-6.73-17-10.25a154.47,154.47,0,0,0-15.26-8.58,73,73,0,0,1-10.15-5.83c-5.41-3.79-11.42-6.51-17-9.75-6.19-3.58-12.12-7.81-18.8-10.66-1.49-.63-3.28-1.05-4.63-2.22-5.17-4.5-11.7-6.75-17.35-10.48-2.87-1.9-6.53-2.68-9.18-4.78-5.68-4.52-12.77-6.65-18.35-11.17-2.81-2.28-6.42-2.85-9.11-4.87-3-2.27-6.27-4.11-9.44-6-6.46-4-13.58-6.82-19.82-11.18-6.09-4.25-12.88-7.26-19.21-11.09-5.6-3.39-11.4-6.57-17.09-9.89-2.24-1.31-5.05-1.76-7-3.33-6.18-4.86-13.72-7.38-20-12-2.12-1.56-5.11-2-7.1-3.67-5.47-4.57-12.78-6-18-10.78-2.67-2.46-6.39-2.87-9.09-4.86-5.6-4.15-11.64-7.47-17.61-11-3.09-1.82-6.77-2.76-9.34-5.07-3.7-3.34-8.25-5-12.58-6.27a73.29,73.29,0,0,0-20.45-3c-4.36,0-8.46,1.28-12.7,1.6a37.28,37.28,0,0,0-17.48,6.33c-9.82,6.32-20.34,11.39-30.24,17.59-5,3.14-10.52,5.83-15.7,8.85-8.16,4.77-16.64,9-24.6,14.1-2.07,1.34-3.74,3.76-6.16,4-4.18.45-6.75,3.57-10.09,5.33-8.34,4.39-16.19,9.68-24.54,14-2.35,1.23-4.1,3.11-6.44,4.34-3.69,1.94-7.71,3.31-11,6-4.56,3.65-10.29,5.33-15.05,8.84-3.59,2.66-8.15,4-11.93,6.7-4.68,3.29-9.93,5.69-14.88,8.55-5.23,3-10.59,5.92-15.9,8.84-8.21,4.54-15.83,10.21-24.22,14.34-7.95,3.9-15,9.09-22.72,13.33-3.36,1.85-6.69,3.87-10,5.64-5.28,2.83-10.63,5.67-15.75,8.72-8.81,5.25-17.88,10-26.62,15.4-3,1.83-6.38,3.1-9.09,5.25a70.94,70.94,0,0,0-20.77,26c-3.4,7.39-6,15-6,23.09Q5,407.93,5.05,577.65a27.21,27.21,0,0,0,.38,5.65,71.63,71.63,0,0,0,8.63,22.07c-.82.55-.71,1.09-.18,1.86a110.86,110.86,0,0,0,7.34,9.4c6.25,7.24,14.12,12.15,22.42,16.69,11,6,21.67,12.53,32.56,18.7,9.06,5.13,18.07,10.37,27.1,15.55,11.75,6.75,23.34,13.78,35.05,20.59,8.38,4.87,16.86,9.56,25.28,14.36q14.52,8.28,29,16.62c1.17,3.56,4.93,3.09,7.34,4.73h0c.47,1.84,1.82,1.42,3.09,1.2l2.16,1.33a1.38,1.38,0,0,0,1.56,1.25l3.26,1.52c-.07,2.08,2.2,2.34,3.07,2.65,3.19,1.14,5.31,4.51,9.06,4.29l1.34.8a4.8,4.8,0,0,0,4.47,3c2.29.08,3.54,2,5.34,3,.55,2,2.52,1.35,3.76,2.05l.21.23c2.87,3.07,6.72,4.46,10.42,6.09a2.89,2.89,0,0,1,2.62,1.39c1.68,2.5,4.18,3.49,7,3.83l1.73.94c0,.66.32,1.07,1.06,1l1.89.68a1.36,1.36,0,0,0,1.56,1.07l.2.23a12,12,0,0,0,8.48,4.63l.73.41c0,.87-.09,1.79,1.26,1.13,2-.19,2.84,1.87,4.52,2.3,1.88,3.22,5.35,3.8,8.39,5.08l0,0c.36,1.75,1.81,1.19,2.91,1.37l1.63,1.08a19.74,19.74,0,0,0,11.48,6.28l2.94,1.89C306.19,785.1,306.43,785.35,307,785.33Z"/><path class="cls-2" d="M323.25,794.3l-.93-.46c-1.32-.75-2.14-2.42-4-2.17-1.17-.58-2-1.82-3.54-1.69a5.44,5.44,0,0,0-4.67-3l-1.7-1a1.25,1.25,0,0,0-1.45-.66h0c0-.5-.24-.77-.76-.74l-2.94-1.89a45,45,0,0,0-11.48-6.28l-1.63-1.08c-.46-1.53-1.72-1.37-2.91-1.37l0,0c-2-2.91-5.24-4-8.39-5.08-1.68-.43-2.53-2.49-4.52-2.3a1.27,1.27,0,0,0-1.26-1.13l-.73-.4a18.87,18.87,0,0,0-8.48-4.64l-.2-.23c0-1.11-.62-1.33-1.56-1.07l-1.89-.68c0-.67-.28-1.12-1.06-1l-1.72-.94c-2.12-1.7-4.06-3.71-7-3.83a2.89,2.89,0,0,0-2.62-1.39c-2.79-3.19-6.49-4.83-10.42-6.09l-.21-.23c-.49-2.08-2.4-1.57-3.76-2.05-1.8-1-3-2.9-5.34-3a5.22,5.22,0,0,0-4.47-3l-1.34-.8c-3.84-2.67-7.55-5.57-12.13-6.94l-3.26-1.52c-.09-.95-.38-1.66-1.56-1.25l-2.16-1.33c-.5-1.74-2.08-.74-3.09-1.2h0c.15-1.65-.94-2-2.24-2.48-1.75-.6-3.41-1.49-5.1-2.25q-14.52-8.31-29-16.62c-8.42-4.8-16.9-9.49-25.28-14.36-11.71-6.81-23.3-13.84-35-20.59-9-5.18-18-10.42-27.1-15.55-10.89-6.17-21.58-12.7-32.56-18.7-8.3-4.54-16.17-9.45-22.42-16.69a110.86,110.86,0,0,1-7.34-9.4c-.53-.77-.64-1.31.18-1.86.37,0,.82.1,1.08-.08,8.83-5.8,18.22-10.63,27.32-15.95,20-11.71,40.14-23.35,60.41-34.69,15.77-8.82,31.37-17.95,47-27.09,2.57-1.5,3.82-.83,5.14,1.38a81.29,81.29,0,0,0,5.88,9.14c2.54,3.15,3.59,7.47,7.4,9.62l.05.06c2.45,4.69,5.44,9,9.8,12.11l0,0A29.07,29.07,0,0,0,186.92,570l.09.09a6.1,6.1,0,0,0,3.67,3.69l.13.14a6,6,0,0,0,3.69,3.63l.13.14a87.36,87.36,0,0,0,18.11,15.66l.23.23c6.08,6.47,14,10.4,21.22,15.36,4.85,3.35,10.32,5.83,15.61,8.51a238,238,0,0,0,41.74,16.46c3.2.93,6.38,3,10,2.17l2.1.21a40.47,40.47,0,0,0,17.63,3.69l2.85.14c.52.88,1.44.9,2.3,1.09,7.3,1.67,14.79,1.38,22.18,1.76a189.87,189.87,0,0,0,29.49-.65c4.44-.46,9.08.06,13.22-2.23l1.15,0c.91,2.06,3,1.24,3.88.78,3.89-2,8.09-2.32,12.25-3a3,3,0,0,0,2.43-1.56l2.14-.21a1.64,1.64,0,0,0,1.76.29A274.8,274.8,0,0,0,446.31,626a236.83,236.83,0,0,0,32.43-16.18c4.34-2.63,8.88-5,12.53-8.66l.2-.15A77.58,77.58,0,0,0,511,585.92l.08-.07A37.32,37.32,0,0,0,523,575.06l0,0a5.56,5.56,0,0,0,3.75-3.75l0,0a39.56,39.56,0,0,0,10.83-11.85l0,0a1.32,1.32,0,0,0,1.12-1.64l.2-.24c1.58-.11,2-1.32,2.4-2.54l.17-.18a85.17,85.17,0,0,0,15.13-21.08l0,0c2.62-1.62,3-4.77,4.77-7a2.55,2.55,0,0,0-1.31-3.82c-3.39-1.44-6.31-3.62-9.46-5.44-15.39-8.92-30.76-17.86-46.25-26.61-2.77-1.57-5.3-3.84-8.73-4.08l-1.36-1c-1.48-1.05-2.53-2.89-4.76-2.56a3.71,3.71,0,0,1-.55-.5c-1.88-1.49-3.56-3.34-6.24-3.33a3.78,3.78,0,0,1-.57-.49c-5.46-5-12.43-7.65-18.57-11.59-3.75-2.41-4.82-1.78-7.16,2.18a6.67,6.67,0,0,0-.42,1.44l-.18.3c-1.72,2.26-3.87,4.26-4.6,7.16l-.11.12c-5.5,5-10.08,10.91-15.23,16.26l-.27.25a3.73,3.73,0,0,0-1.39.45,121.67,121.67,0,0,1-37.49,21.9c-3.22,1.19-7.09.86-9.71,3.65l-1.34.26c-4.88.63-9.82,1-14.63,2-2.51.52-5.29-.11-7.56,1.55h-12.4c-2.11-1.75-4.81-1-7.19-1.54-4.91-1.1-10-1.44-15-2.1l-1.31-.18a9.2,9.2,0,0,0-3.95-2.05,106.09,106.09,0,0,1-29-13.26c-3.17-2.09-6-4.82-9.78-5.95l-.23-.21c.1-1.25-.93-1.6-1.67-2.26a116.41,116.41,0,0,1-12.12-11.7c-1.5-1.76-2.83-3.8-5-4.86l-.05-.05a1.44,1.44,0,0,0-1.16-1.71l-.08-.11c-1.25-3.62-4.2-6.17-6.06-9.42-1.17-2.07-1.37-3.24.92-4.55,6.21-3.55,12.28-7.36,18.48-10.93,17.4-10,34.88-19.89,52.26-29.95,15.28-8.85,30.46-17.9,45.7-26.84s30.69-18,46.26-26.61c13.14-7.26,25.49-15.86,39.39-21.85,7.41-3.2,14.17-7.91,21.21-12,14.43-8.33,28.81-16.72,43.27-25,8.59-4.91,16.93-10.29,25.92-14.48a4.53,4.53,0,0,0,2.63-3l1.85-.69c2.17,0,3.84-.69,4.52-3l.59-1.12C582,277.65,602.44,266,622.86,254.27q39-22.49,78-45.11l1.19.53.89.69c1.37,4.68,4.22,8.75,5.32,13.57s3.14,9.58,3.14,14.92q-.18,169.15-.08,338.33c0,8.39-3.42,15.84-6.69,23.21A64.67,64.67,0,0,1,688.06,623c-4.15,3.65-9.09,6.05-13.71,8.93-6.09,3.78-12.6,6.85-18.67,10.7-5.37,3.41-11.09,6.27-16.6,9.45s-11.05,6.57-16.64,9.75c-9.81,5.58-19.72,11-29.51,16.6-7,4-13.73,8.44-20.75,12.37-10.29,5.74-20.33,11.91-30.61,17.64q-10.71,6-21.35,12.06c-8.16,4.68-16.25,9.46-24.4,14.15-5.15,3-10.39,5.8-15.53,8.79-8.46,4.92-16.85,9.95-25.3,14.87-8.13,4.74-16.31,9.39-24.46,14.09-7.63,4.4-15.18,9-22.92,13.16-8,4.32-15.33,9.82-23.7,13.34-5.66,2.38-11.41,4.81-17.83,4.67-7.07-.15-14.16-.09-21.23-.12-.15-.59-.13-1.35-.87-1.52-4.2-1-8.41-1.9-12.62-2.85l-.25-.24c0-1-.46-1.42-1.46-1.16l-2.18-.32C327.13,794.88,324.71,795.24,323.25,794.3ZM530.13,434.92c2.78,0,5.57.15,8.34,0,2.45-.17,3.31.49,3,3.11-1.07,9-1.83,18.1-2.91,27.13-.3,2.5.24,3.3,2.83,3.18a128.88,128.88,0,0,1,12.89,0c2.72.15,3.62-.57,3.83-3.45.66-9.07,1.81-18.1,2.59-27.16.2-2.29,1-2.93,3.25-2.83,4.41.19,8.85,0,13.27.08,1.76,0,2.46-.44,2.41-2.31q-.17-6.83,0-13.66c0-1.78-.46-2.45-2.34-2.38-4,.13-8.09-.05-12.13.08-1.88.05-2.29-.44-2.06-2.35.91-7.4,1.74-14.81,2.28-22.24.19-2.51,1.22-2.78,3.28-2.72,4.43.12,8.86-.05,13.28.08,2,.06,2.93-.38,2.83-2.66-.18-4.29-.22-8.6,0-12.89.14-2.53-.87-2.91-3-2.82-3.91.15-7.84-.06-11.76.08-2,.07-2.51-.47-2.27-2.53.94-8.29,1.6-16.6,2.53-24.88.25-2.23,0-3.16-2.58-3a135.1,135.1,0,0,1-13.65,0c-2.41-.12-2.94.82-3.13,2.94-.78,8.3-1.81,16.57-2.52,24.88-.18,2.14-.85,2.7-2.91,2.64-5.43-.13-10.88-.21-16.3,0-2.84.12-3.32-.91-3-3.44.94-8.15,1.6-16.34,2.59-24.49.27-2.16-.33-2.56-2.26-2.52-4.81.1-9.61.13-14.41,0-2-.06-2.5.62-2.68,2.53-.8,8.55-1.85,17.08-2.66,25.63-.17,1.79-.73,2.32-2.51,2.27-4.55-.13-9.1,0-13.65-.08-1.84-.05-2.38.57-2.33,2.37.11,4.54.11,9.1,0,13.65-.05,1.83.54,2.4,2.36,2.34,4-.11,8.09,0,12.13,0,1.34,0,2,.14,1.84,1.87-.92,7.77-1.76,15.56-2.43,23.36-.18,2.09-1.24,2-2.72,2-4.67,0-9.35.05-14,0-1.77,0-2.45.46-2.4,2.33.12,4.55.11,9.1,0,13.65,0,1.83.56,2.42,2.37,2.38,4.17-.11,8.35.06,12.51-.08,1.93-.06,2.29.52,2,2.38-1.18,9-1.31,18.08-3.17,27-.42,2.07-.4,4.44,3.32,4.1a112.84,112.84,0,0,1,13.64-.06c2,.06,2.53-.58,2.69-2.54.65-8.05,1.51-16.09,2.3-24.14.66-6.69.66-6.69,7.28-6.69Z"/><path class="cls-3" d="M168.25,547.7c-3.81-2.15-4.86-6.47-7.4-9.62a81.29,81.29,0,0,1-5.88-9.14c-1.32-2.21-2.57-2.88-5.14-1.38-15.59,9.14-31.19,18.27-47,27.09-20.27,11.34-40.36,23-60.41,34.69-9.1,5.32-18.49,10.15-27.32,15.95-.26.18-.71.06-1.08.08A71.63,71.63,0,0,1,5.43,583.3a27.21,27.21,0,0,1-.38-5.65q0-169.72.12-339.45c0-8.13,2.6-15.7,6-23.09a70.94,70.94,0,0,1,20.77-26c2.71-2.15,6.11-3.42,9.09-5.25,8.74-5.35,17.81-10.15,26.62-15.4,5.12-3.05,10.47-5.89,15.75-8.72,3.32-1.77,6.65-3.79,10-5.64,7.68-4.24,14.77-9.43,22.72-13.33,8.39-4.13,16-9.8,24.22-14.34,5.31-2.92,10.67-5.82,15.9-8.84,4.95-2.86,10.2-5.26,14.88-8.55,3.78-2.66,8.34-4,11.93-6.7,4.76-3.51,10.49-5.19,15.05-8.84,3.34-2.66,7.36-4,11-6,2.34-1.23,4.09-3.11,6.44-4.34,8.35-4.37,16.2-9.66,24.54-14,3.34-1.76,5.91-4.88,10.09-5.33,2.42-.26,4.09-2.68,6.16-4,8-5.14,16.44-9.33,24.6-14.1,5.18-3,10.66-5.71,15.7-8.85,9.9-6.2,20.42-11.27,30.24-17.59A37.28,37.28,0,0,1,344.41,13c4.24-.32,8.34-1.59,12.7-1.6a73.29,73.29,0,0,1,20.45,3c4.33,1.24,8.88,2.93,12.58,6.27,2.57,2.31,6.25,3.25,9.34,5.07,6,3.53,12,6.85,17.61,11,2.7,2,6.42,2.4,9.09,4.86,5.24,4.81,12.55,6.21,18,10.78,2,1.67,5,2.11,7.1,3.67,6.31,4.64,13.85,7.16,20,12,2,1.57,4.8,2,7,3.33,5.69,3.32,11.49,6.5,17.09,9.89,6.33,3.83,13.12,6.84,19.21,11.09s13.36,7.2,19.82,11.18c3.17,1.94,6.42,3.78,9.44,6,2.69,2,6.3,2.59,9.11,4.87,5.58,4.52,12.67,6.65,18.35,11.17,2.65,2.1,6.31,2.88,9.18,4.78,5.65,3.73,12.18,6,17.35,10.48,1.35,1.17,3.14,1.59,4.63,2.22,6.68,2.85,12.61,7.08,18.8,10.66,5.62,3.24,11.63,6,17,9.75a73,73,0,0,0,10.15,5.83,154.47,154.47,0,0,1,15.26,8.58c5.63,3.52,11.45,6.73,17,10.25A53.82,53.82,0,0,1,698,205.31c.87,1.4,2.29,2.3,2.88,3.85q-39,22.56-78,45.11C602.44,266,582,277.65,561.5,289.34a117.28,117.28,0,0,0-12-18.7c-9.73-13-20.18-25.4-32.27-36.45a240.67,240.67,0,0,0-43.95-31.84,230.36,230.36,0,0,0-66.17-25,211,211,0,0,0-42.34-5c-18.05-.12-36,.58-53.78,4.29a247.89,247.89,0,0,0-45.72,13.93A224.85,224.85,0,0,0,213.45,221c-8.22,6.45-16.37,13-23.59,20.59-11.12,11.67-21.56,23.93-30.26,37.57-8.26,12.95-15.65,26.37-21.19,40.69A257.43,257.43,0,0,0,126,362.19c-2.51,12.42-3.53,24.9-4.15,37.45-.48,9.58.21,19.16.74,28.74A158.73,158.73,0,0,0,125.33,449a244.41,244.41,0,0,0,6.89,27.78A279.71,279.71,0,0,0,144.78,509c4.94,10.87,12.05,20.46,18.44,30.47C164.94,542.17,167.89,544.17,168.25,547.7Z"/><path class="cls-3" d="M331.36,799.1c4.21.95,8.42,1.87,12.62,2.85.74.17.72.93.87,1.52C340.06,802.91,335.4,802,331.36,799.1Z"/><path class="cls-3" d="M210.07,729.18c4.58,1.37,8.29,4.27,12.13,6.94-3.75.22-5.87-3.15-9.06-4.29C212.27,731.52,210,731.26,210.07,729.18Z"/><path class="cls-3" d="M291.77,776.42a45,45,0,0,1,11.48,6.28A19.74,19.74,0,0,1,291.77,776.42Z"/><path class="cls-3" d="M237.32,745.18c3.93,1.26,7.63,2.9,10.42,6.09C244,749.64,240.19,748.25,237.32,745.18Z"/><path class="cls-3" d="M263.83,760.4a18.87,18.87,0,0,1,8.48,4.64A12,12,0,0,1,263.83,760.4Z"/><path class="cls-3" d="M278.82,768.87C282,770,285.16,771,287.21,774,284.17,772.67,280.7,772.09,278.82,768.87Z"/><path class="cls-3" d="M250.36,752.66c3,.12,4.92,2.13,7,3.83C254.54,756.15,252,755.16,250.36,752.66Z"/><path class="cls-3" d="M192.66,719.14c1.69.76,3.35,1.65,5.1,2.25,1.3.45,2.39.83,2.24,2.48C197.59,722.23,193.83,722.7,192.66,719.14Z"/><path class="cls-3" d="M223.54,736.92a5.22,5.22,0,0,1,4.47,3A4.8,4.8,0,0,1,223.54,736.92Z"/><path class="cls-3" d="M323.25,794.3c1.46.94,3.88.58,4.22,3.08C326.09,796.31,323.3,797.18,323.25,794.3Z"/><path class="cls-3" d="M310.11,787a5.44,5.44,0,0,1,4.67,3A7.45,7.45,0,0,1,310.11,787Z"/><path class="cls-3" d="M318.32,791.67c1.86-.25,2.68,1.42,4,2.17C320.12,794.71,319.37,792.91,318.32,791.67Z"/><path class="cls-3" d="M233.35,742.9c1.36.48,3.27,0,3.76,2.05C235.87,744.25,233.9,744.87,233.35,742.9Z"/><path class="cls-3" d="M200,723.88c1,.46,2.59-.54,3.09,1.2C201.82,725.3,200.47,725.72,200,723.88Z"/><path class="cls-3" d="M287.23,774c1.19,0,2.45-.16,2.91,1.37C289,775.16,287.59,775.72,287.23,774Z"/><path class="cls-3" d="M273,765.44a1.27,1.27,0,0,1,1.26,1.13C273,767.23,273,766.31,273,765.44Z"/><path class="cls-3" d="M205.25,726.41c1.18-.41,1.47.3,1.56,1.25A1.38,1.38,0,0,1,205.25,726.41Z"/><path class="cls-3" d="M307,785.34a1.25,1.25,0,0,1,1.45.66C307.5,786.71,307.05,786.41,307,785.34Z"/><path class="cls-3" d="M262.07,759.1c.94-.26,1.56,0,1.56,1.07A1.36,1.36,0,0,1,262.07,759.1Z"/><path class="cls-3" d="M329.65,797.7c1-.26,1.49.12,1.46,1.16C330.22,799,329.82,798.49,329.65,797.7Z"/><path class="cls-3" d="M259.12,757.43c.78-.13,1,.32,1.06,1C259.44,758.5,259.16,758.09,259.12,757.43Z"/><path class="cls-3" d="M702.91,210.38l-.89-.69A.66.66,0,0,1,702.91,210.38Z"/><path class="cls-3" d="M306.19,784.59c.52,0,.75.24.76.74C306.43,785.35,306.19,785.1,306.19,784.59Z"/><path class="cls-1" d="M168.25,547.7c-.36-3.53-3.31-5.53-5-8.23-6.39-10-13.5-19.6-18.44-30.47a279.71,279.71,0,0,1-12.56-32.26A244.41,244.41,0,0,1,125.33,449a158.73,158.73,0,0,1-2.72-20.58c-.53-9.58-1.22-19.16-.74-28.74.62-12.55,1.64-25,4.15-37.45a257.43,257.43,0,0,1,12.39-42.32c5.54-14.32,12.93-27.74,21.19-40.69,8.7-13.64,19.14-25.9,30.26-37.57,7.22-7.57,15.37-14.14,23.59-20.59a224.85,224.85,0,0,1,51.87-30.43A247.89,247.89,0,0,1,311,176.66c17.81-3.71,35.73-4.41,53.78-4.29a211,211,0,0,1,42.34,5,230.36,230.36,0,0,1,66.17,25,240.67,240.67,0,0,1,43.95,31.84c12.09,11.05,22.54,23.43,32.27,36.45a117.28,117.28,0,0,1,12,18.7c-.2.37-.39.74-.6,1.12-1.84.47-3.82.72-4.51,3l-1.85.69c-1.7-.41-2.95.69-4.1,1.52-4.88,3.5-10.36,6-15.41,9.2-7.85,5-16.24,9.15-24.32,13.79-7.45,4.28-14.77,8.78-22.2,13.1-8.55,5-17.2,9.79-25.7,14.85-2.22,1.33-3.59,1.28-5-.91a127.86,127.86,0,0,0-11.42-15.48,113.16,113.16,0,0,0-30.95-25A135.42,135.42,0,0,0,384.74,293c-13.83-3.59-27.72-3.59-41.69-2.31-9.28.85-18.15,3.64-27,6.75-11.4,4-21.49,10.25-31,17.42s-17.19,16-24.21,25.57c-5.76,7.83-9.79,16.5-13.52,25.35s-5.58,18-6.82,27.3a99.6,99.6,0,0,0,.3,29.7c1.49,9,3.16,17.8,6.53,26.21a127.48,127.48,0,0,0,11,22.06c1.75,2.71,2.8,6.22,6.25,7.61l.08.1c-.12.92.18,1.55,1.16,1.72l.05.05c4.58,8,11.26,13.85,18.84,18.82l.23.21c.09,1,.93,1.44,1.61,2a123.62,123.62,0,0,0,32.9,17.64c2.5.91,5.14,3,8.25,1.66L329,521c4.12,3.83,9.68,2.3,14.45,3.74a13.56,13.56,0,0,0,7.75-.1h12.4c6.82,1.46,13.29-1.23,20-1.73a2.71,2.71,0,0,0,2.24-1.8l1.34-.26a4.39,4.39,0,0,0,3.67,0c5.61-2.24,11.3-4.19,16.8-6.79a122.48,122.48,0,0,0,22.09-13.35c2.19-1.67,5.22-2.65,6-5.82l.27-.25c6.49-4.09,11.33-9.73,15.23-16.26l.11-.12c2-2.07,4.89-3.61,4.6-7.16l.18-.3c1.71.42,1.58-1.22,2.2-2,1.07-1.34,2.54-2.15,3.89-1,2.31,2,5,3.23,7.61,4.66,4.06,2.26,7.76,5.28,12.45,6.29a3.78,3.78,0,0,0,.57.49c1.28,2.6,3.64,3.19,6.24,3.33a3.71,3.71,0,0,0,.55.5c1,1.95,2.39,3.15,4.76,2.56l1.36,1c.77,2,2.67,2.67,4.33,3.37,3.38,1.41,6.36,3.53,9.53,5.28,9.68,5.32,19.05,11.2,28.58,16.78q10.23,6,20.59,11.74c1.92,1.08,1.9,1.91.82,3.82s-3.15,3.42-2.87,6l0,0a1.58,1.58,0,0,0-1.48.89c-2.56,3.82-5.34,7.51-7.71,11.44-1.83,3-5.37,4.89-5.94,8.75l-.17.18c-1.59.1-2,1.29-2.4,2.54l-.19.23a1.37,1.37,0,0,0-1.13,1.65l0,0c-4.43,3.2-7.7,7.46-10.83,11.85l0,0A5.72,5.72,0,0,0,523,575l0,0a23.55,23.55,0,0,0-6.8,5.57c-1.62,1.81-4.55,2.37-5,5.22l-.08.07c-.58.14-1.31.1-1.74.44-4,3.14-8,6.21-11.79,9.58-2,1.76-5.11,2.1-6,5l-.2.15c-1.77-.43-2.76,1-4,1.73-3.51,2.12-7,4.32-10.48,6.46A204.45,204.45,0,0,1,445,624.86c-7.29,2.87-14.65,5.41-22.15,7.66-3.21,1-7.18.36-9.65,3.49l-2.14.21c-6.32.61-12.71.88-18.56,3.78l-1.15,0c-5.07-.87-10,1.11-14.91,1.1-15.06,0-30.16,1.49-45.17-1.11a16.1,16.1,0,0,0-7.11,0l-2.85-.14c-5.49-3.06-11.62-3.07-17.63-3.69l-2.1-.21c-1-.69-2-1.8-3.1-2a118.55,118.55,0,0,1-13.62-3.82c-7.16-2.25-14.08-5-21-7.84C248,615.75,233.3,607,219.25,597.14c-2-1.4-3.5-3.59-6.28-3.6l-.23-.23c.22-1.44-1-1.94-1.81-2.64-3.44-2.91-7-5.69-10.37-8.68-1.86-1.64-3.24-3.85-5.93-4.34l-.13-.14c-.28-2.18-1.69-3.21-3.69-3.63l-.13-.14c-.25-2.19-1.67-3.22-3.67-3.69l-.09-.09c-1.85-4.29-5.28-7.2-8.78-10.05l0,0a52.77,52.77,0,0,0-9.8-12.11Z"/><path class="cls-3" d="M264.56,478.67c-3.45-1.39-4.5-4.9-6.25-7.61a127.48,127.48,0,0,1-11-22.06c-3.37-8.41-5-17.25-6.53-26.21a99.6,99.6,0,0,1-.3-29.7c1.24-9.31,3.14-18.57,6.82-27.3s7.76-17.52,13.52-25.35c7-9.56,14.73-18.45,24.21-25.57s19.64-13.38,31-17.42c8.82-3.11,17.69-5.9,27-6.75,14-1.28,27.86-1.28,41.69,2.31a135.42,135.42,0,0,1,30.69,12.16,113.16,113.16,0,0,1,30.95,25,127.86,127.86,0,0,1,11.42,15.48c1.42,2.19,2.79,2.24,5,.91,8.5-5.06,17.15-9.87,25.7-14.85,7.43-4.32,14.75-8.82,22.2-13.1,8.08-4.64,16.47-8.79,24.32-13.79,5.05-3.22,10.53-5.7,15.41-9.2,1.15-.83,2.4-1.93,4.1-1.52a4.53,4.53,0,0,1-2.63,3c-9,4.19-17.33,9.57-25.92,14.48-14.46,8.27-28.84,16.66-43.27,25-7,4.06-13.8,8.77-21.21,12-13.9,6-26.25,14.59-39.39,21.85C406.55,379,391.21,388,375.86,397s-30.42,18-45.7,26.84c-17.38,10.06-34.86,19.93-52.26,29.95-6.2,3.57-12.27,7.38-18.48,10.93-2.29,1.31-2.09,2.48-.92,4.55C260.36,472.5,263.31,475.05,264.56,478.67Z"/><path class="cls-1" d="M530.13,434.92H526c-6.62,0-6.62,0-7.28,6.69-.79,8.05-1.65,16.09-2.3,24.14-.16,2-.72,2.6-2.69,2.54a112.84,112.84,0,0,0-13.64.06c-3.72.34-3.74-2-3.32-4.1,1.86-8.91,2-18,3.17-27,.24-1.86-.12-2.44-2-2.38-4.16.14-8.34,0-12.51.08-1.81,0-2.41-.55-2.37-2.38.11-4.55.12-9.1,0-13.65-.05-1.87.63-2.36,2.4-2.33,4.68.1,9.36,0,14,0,1.48,0,2.54.07,2.72-2,.67-7.8,1.51-15.59,2.43-23.36.2-1.73-.5-1.88-1.84-1.87-4,0-8.09-.07-12.13,0-1.82.06-2.41-.51-2.36-2.34.11-4.55.11-9.11,0-13.65-.05-1.8.49-2.42,2.33-2.37,4.55.12,9.1-.05,13.65.08,1.78,0,2.34-.48,2.51-2.27.81-8.55,1.86-17.08,2.66-25.63.18-1.91.69-2.59,2.68-2.53,4.8.14,9.6.11,14.41,0,1.93,0,2.53.36,2.26,2.52-1,8.15-1.65,16.34-2.59,24.49-.3,2.53.18,3.56,3,3.44,5.42-.24,10.87-.16,16.3,0,2.06.06,2.73-.5,2.91-2.64.71-8.31,1.74-16.58,2.52-24.88.19-2.12.72-3.06,3.13-2.94a135.1,135.1,0,0,0,13.65,0c2.57-.12,2.83.81,2.58,3-.93,8.28-1.59,16.59-2.53,24.88-.24,2.06.27,2.6,2.27,2.53,3.92-.14,7.85.07,11.76-.08,2.17-.09,3.18.29,3,2.82-.23,4.29-.19,8.6,0,12.89.1,2.28-.81,2.72-2.83,2.66-4.42-.13-8.85,0-13.28-.08-2.06-.06-3.09.21-3.28,2.72-.54,7.43-1.37,14.84-2.28,22.24-.23,1.91.18,2.4,2.06,2.35,4-.13,8.09.05,12.13-.08,1.88-.07,2.38.6,2.34,2.38q-.17,6.82,0,13.66c0,1.87-.65,2.35-2.41,2.31-4.42-.09-8.86.11-13.27-.08-2.25-.1-3.05.54-3.25,2.83-.78,9.06-1.93,18.09-2.59,27.16-.21,2.88-1.11,3.6-3.83,3.45a128.88,128.88,0,0,0-12.89,0c-2.59.12-3.13-.68-2.83-3.18,1.08-9,1.84-18.1,2.91-27.13.31-2.62-.55-3.28-3-3.11C535.7,435.07,532.91,434.92,530.13,434.92Zm2.3-18.28c3,0,6.06,0,9.09,0,1.25,0,2.05-.06,2.2-1.72.67-7.66,1.46-15.32,2.32-23,.22-2-.31-2.65-2.37-2.6-5.8.12-11.61.1-17.42,0-1.82,0-2.29.62-2.44,2.36-.59,6.66-1.4,13.3-2.09,19.95-.52,4.95-.5,5,4.65,5Z"/><path class="cls-3" d="M213,593.54c2.78,0,4.29,2.2,6.28,3.6C233.3,607,248,615.75,263.88,622.37c6.91,2.87,13.83,5.59,21,7.84A118.55,118.55,0,0,0,298.49,634c1.12.21,2.07,1.32,3.1,2-3.67.86-6.85-1.24-10-2.17a238,238,0,0,1-41.74-16.46c-5.29-2.68-10.76-5.16-15.61-8.51C227,603.94,219.05,600,213,593.54Z"/><path class="cls-3" d="M556.71,533.62c-.28-2.56,1.8-4.09,2.87-6s1.1-2.74-.82-3.82q-10.35-5.77-20.59-11.74c-9.53-5.58-18.9-11.46-28.58-16.78-3.17-1.75-6.15-3.87-9.53-5.28-1.66-.7-3.56-1.38-4.33-3.37,3.43.24,6,2.51,8.73,4.08,15.49,8.75,30.86,17.69,46.25,26.61,3.15,1.82,6.07,4,9.46,5.44a2.55,2.55,0,0,1,1.31,3.82C559.74,528.85,559.33,532,556.71,533.62Z"/><path class="cls-3" d="M413.21,636c2.47-3.13,6.44-2.53,9.65-3.49,7.5-2.25,14.86-4.79,22.15-7.66a204.45,204.45,0,0,0,31.78-15.53c3.51-2.14,7-4.34,10.48-6.46,1.24-.75,2.23-2.16,4-1.73-3.65,3.65-8.19,6-12.53,8.66A236.83,236.83,0,0,1,446.31,626,274.8,274.8,0,0,1,415,636.3,1.64,1.64,0,0,1,413.21,636Z"/><path class="cls-3" d="M324.17,640.08a16.1,16.1,0,0,1,7.11,0c15,2.6,30.11,1.08,45.17,1.11,4.94,0,9.84-2,14.91-1.1-4.14,2.29-8.78,1.77-13.22,2.23a189.87,189.87,0,0,1-29.49.65c-7.39-.38-14.88-.09-22.18-1.76C325.61,641,324.69,641,324.17,640.08Z"/><path class="cls-3" d="M435.71,494.86c-.81,3.17-3.84,4.15-6,5.82A122.48,122.48,0,0,1,407.59,514c-5.5,2.6-11.19,4.55-16.8,6.79a4.39,4.39,0,0,1-3.67,0c2.62-2.79,6.49-2.46,9.71-3.65a121.67,121.67,0,0,0,37.49-21.9A3.73,3.73,0,0,1,435.71,494.86Z"/><path class="cls-3" d="M327.68,520.83c-3.11,1.34-5.75-.75-8.25-1.66a123.62,123.62,0,0,1-32.9-17.64c-.68-.52-1.52-.95-1.61-2,3.77,1.13,6.61,3.86,9.78,5.95a106.09,106.09,0,0,0,29,13.26A9.2,9.2,0,0,1,327.68,520.83Z"/><path class="cls-3" d="M482.25,478.74c-4.69-1-8.39-4-12.45-6.29-2.57-1.43-5.3-2.68-7.61-4.66-1.35-1.16-2.82-.35-3.89,1-.62.77-.49,2.41-2.2,2a6.67,6.67,0,0,1,.42-1.44c2.34-4,3.41-4.59,7.16-2.18C469.82,471.09,476.79,473.72,482.25,478.74Z"/><path class="cls-3" d="M284.69,499.36c-7.58-5-14.26-10.85-18.84-18.82,2.22,1.06,3.55,3.1,5,4.86A116.41,116.41,0,0,0,283,497.1C283.76,497.76,284.79,498.11,284.69,499.36Z"/><path class="cls-3" d="M351.19,524.65a13.56,13.56,0,0,1-7.75.1c-4.77-1.44-10.33.09-14.45-3.74,5,.66,10.1,1,15,2.1C346.38,523.65,349.08,522.9,351.19,524.65Z"/><path class="cls-3" d="M385.78,521.12a2.71,2.71,0,0,1-2.24,1.8c-6.66.5-13.13,3.19-20,1.73,2.27-1.66,5.05-1,7.56-1.55C376,522.12,380.9,521.75,385.78,521.12Z"/><path class="cls-3" d="M541.55,554.73c.57-3.86,4.11-5.71,5.94-8.75,2.37-3.93,5.15-7.62,7.71-11.44a1.58,1.58,0,0,1,1.48-.89A85.17,85.17,0,0,1,541.55,554.73Z"/><path class="cls-3" d="M491.47,601c.93-3,4.08-3.29,6-5,3.77-3.37,7.82-6.44,11.79-9.58.43-.34,1.16-.3,1.74-.44A77.58,77.58,0,0,1,491.47,601Z"/><path class="cls-3" d="M392.51,640c5.85-2.9,12.24-3.17,18.56-3.78a3,3,0,0,1-2.43,1.56c-4.16.68-8.36,1-12.25,3C395.5,641.24,393.42,642.06,392.51,640Z"/><path class="cls-3" d="M194.63,577.65c2.69.49,4.07,2.7,5.93,4.34,3.38,3,6.93,5.77,10.37,8.68.82.7,2,1.2,1.81,2.64A87.36,87.36,0,0,1,194.63,577.65Z"/><path class="cls-3" d="M451.21,478.35c-3.9,6.53-8.74,12.17-15.23,16.26C441.13,489.26,445.71,483.38,451.21,478.35Z"/><path class="cls-3" d="M303.69,636.25c6,.62,12.14.63,17.63,3.69A40.47,40.47,0,0,1,303.69,636.25Z"/><path class="cls-3" d="M511.12,585.85c.5-2.85,3.43-3.41,5-5.22a23.55,23.55,0,0,1,6.8-5.57A37.32,37.32,0,0,1,511.12,585.85Z"/><path class="cls-3" d="M526.8,571.22c3.13-4.39,6.4-8.65,10.83-11.85A39.56,39.56,0,0,1,526.8,571.22Z"/><path class="cls-3" d="M168.3,547.76a52.77,52.77,0,0,1,9.8,12.11C173.74,556.71,170.75,552.45,168.3,547.76Z"/><path class="cls-3" d="M178.14,559.91c3.5,2.85,6.93,5.76,8.78,10.05A29.07,29.07,0,0,1,178.14,559.91Z"/><path class="cls-3" d="M455.92,471.07c.29,3.55-2.56,5.09-4.6,7.16C452.05,475.33,454.2,473.33,455.92,471.07Z"/><path class="cls-3" d="M489.06,482.56c-2.6-.14-5-.73-6.24-3.33C485.5,479.22,487.18,481.07,489.06,482.56Z"/><path class="cls-3" d="M494.37,485.62c-2.37.59-3.77-.61-4.76-2.56C491.84,482.73,492.89,484.57,494.37,485.62Z"/><path class="cls-3" d="M556.39,293.41c.69-2.23,2.67-2.48,4.51-3C560.23,292.72,558.56,293.44,556.39,293.41Z"/><path class="cls-3" d="M190.81,573.88c2,.42,3.41,1.45,3.69,3.63A6,6,0,0,1,190.81,573.88Z"/><path class="cls-3" d="M523,575a5.72,5.72,0,0,1,3.75-3.75A5.56,5.56,0,0,1,523,575Z"/><path class="cls-3" d="M187,570.05c2,.47,3.42,1.5,3.67,3.69A6.1,6.1,0,0,1,187,570.05Z"/><path class="cls-3" d="M539,557.45c.37-1.25.81-2.44,2.4-2.54C541,556.13,540.56,557.34,539,557.45Z"/><path class="cls-3" d="M265.8,480.49c-1-.17-1.28-.8-1.16-1.72A1.45,1.45,0,0,1,265.8,480.49Z"/><path class="cls-3" d="M537.66,559.33a1.37,1.37,0,0,1,1.13-1.65A1.34,1.34,0,0,1,537.66,559.33Z"/><path class="cls-2" d="M532.43,416.64h-6.06c-5.15,0-5.17,0-4.65-5,.69-6.65,1.5-13.29,2.09-19.95.15-1.74.62-2.39,2.44-2.36,5.81.1,11.62.12,17.42,0,2.06-.05,2.59.61,2.37,2.6-.86,7.64-1.65,15.3-2.32,23-.15,1.66-1,1.74-2.2,1.72C538.49,416.61,535.46,416.64,532.43,416.64Z"/></svg>