<svg id="Layer_1" data-name="Layer 1" xmlns="http://www.w3.org/2000/svg" viewBox="0 0 792 765.12"><defs><style>.cls-1{fill:#fdfdfd;}.cls-2{fill:#1169ad;}.cls-3{fill:#fefefe;}.cls-4{fill:#8ab5d6;}.cls-5{fill:#4a8dc0;}.cls-6{fill:#85b2d4;}.cls-7{fill:#8db7d7;}.cls-8{fill:#488bc0;}.cls-9{fill:#87b3d5;}.cls-10{fill:#4086bd;}.cls-11{fill:#2f7cb7;}</style></defs><title>jquery</title><path class="cls-1" d="M.09,325.7Q.09,166.37,0,7.05c0-2.86.47-3.7,3.57-3.7q392.28.13,784.55,0c3.2,0,3.85.64,3.85,3.85q-.15,377.43,0,754.86c0,3.51-.93,4-4.12,4q-161.89-.13-323.79-.08c.4-2.27,2.32-1.7,3.72-1.84A494.77,494.77,0,0,0,521,756.41c56.71-11.9,107.73-35.83,152.36-72.86a360.12,360.12,0,0,0,85.51-103.41c2-3.57,3.65-7.31,5.51-11s3.58-7.33,5.39-10.74a284.54,284.54,0,0,1-81.57,68.9c-38.28,21.46-79.44,34-122.74,39.82-14.63,2-29.37,2.64-44.11,3.51-12.18.71-24.27,0-36.32-.54a443.22,443.22,0,0,1-68.2-8.74c-27.67-5.63-54.15-14.92-80-26.08A456.72,456.72,0,0,1,223.27,564.8c-40.63-34.24-74.61-74.14-101-120.28A394.14,394.14,0,0,1,73.72,304.34,329,329,0,0,1,70.41,242c1.82-39.79,10.23-78.11,26.77-114.5,1.14-2.49,2.14-5,3.15-7C93.27,129.92,85.5,139.41,78,149.08S62.61,168.23,55.2,178C31.73,209,16.71,243.92,8.28,281.77a292.93,292.93,0,0,0-5.77,37.51C2.31,321.46,3.06,324.4.09,325.7Z"/><path class="cls-2" d="M.09,325.7c2-5.06,1.56-10.49,2.22-15.74C8,264.05,22.88,221.43,49.78,183.68c15.06-21.14,31.92-41,48-61.4,1.51-1.92,2.77-4.09,5-5.69.35,1.69-.61,2.71-1.15,3.83A303.92,303.92,0,0,0,72,236.42C68.49,300.51,82.43,361,109.93,418.59c22.11,46.31,52.25,86.9,89,122.6C256.46,597.17,324,636,401.6,656.76c25.12,6.72,50.91,10,76.85,11.81a421.3,421.3,0,0,0,72.27-.82c70.91-7.18,135.15-30.43,188.88-78.8a263.31,263.31,0,0,0,30.25-32.29,8.43,8.43,0,0,1,2-1.88,127.82,127.82,0,0,1-9.73,21.4C709,672.24,629.56,733.42,522,757.28a403,403,0,0,1-55.53,7.88c-.83.06-1.91-.46-2.37.78h-2.38c-1.24-.82-2.64-.22-3.95-.4-1.32.18-2.71-.42-4,.4H413.41c-1.52-.85-3.17-.2-4.74-.4-1.58.2-3.23-.45-4.76.4h-2.37c-6.63-.94-13.35-.54-20-1.31-22.53-2.6-45-5.11-66.76-12.31-26.22-8.69-51.85-18.72-76.33-31.57A478.26,478.26,0,0,1,156,665.69a460.51,460.51,0,0,1-44.08-42A433.82,433.82,0,0,1,16.42,459.94,377.33,377.33,0,0,1,1,386.5C.5,381.83.8,377.09.09,372.41V370c.86-1.52.2-3.17.41-4.75-.21-1.58.45-3.23-.41-4.75v-23c.86-1.52.2-3.17.41-4.74-.21-1.58.45-3.23-.41-4.76Z"/><path class="cls-3" d="M.09,372.41c1.89,5.22,1.54,10.76,2.17,16.14A393.66,393.66,0,0,0,37.11,510.3C71.27,583.61,122.45,642.59,188.37,689a451.47,451.47,0,0,0,142.35,66.75c16.53,4.5,33.7,6,50.73,7.78,6.29.68,12.6,1.1,18.91,1.62.55.05,1,.18,1.18.78q-198.85,0-397.69.09C.64,766,0,765.4,0,762.19Q.15,567.29.09,372.41Z"/><path class="cls-4" d="M.09,328.07c1.54,1.36.52,3.11.71,4.68-.2.41-.43.45-.71.07Z"/><path class="cls-5" d="M.09,332.82l.71-.07c-.12,1.62.72,3.39-.71,4.82Z"/><path class="cls-5" d="M.09,360.54c1.43,1.44.6,3.2.69,4.83-.27.27-.5.24-.69-.08Z"/><path class="cls-6" d="M.09,365.29l.69.08c-.1,1.58.79,3.3-.69,4.67Z"/><path class="cls-7" d="M403.91,765.94c1.35-1.6,3.12-.47,4.67-.7.31.12.42.27.34.44s-.16.26-.26.26Z"/><path class="cls-8" d="M408.66,765.94a3.34,3.34,0,0,0-.08-.7c1.63.09,3.4-.71,4.83.7Z"/><path class="cls-9" d="M457.76,765.94a5.1,5.1,0,0,1,.08-.67c1.31.11,2.8-.79,3.87.67Z"/><path class="cls-2" d="M305.44,45.71c-3.21,7-6.24,13.09-8.84,19.36-14.21,34.25-19.39,69.94-16.4,106.8,5.18,64,31.28,119,73.18,166.8,48,54.69,107.64,90.41,178.84,106,61.37,13.41,121.1,8.64,178-19.46a213.86,213.86,0,0,0,77.95-65c.72-1,1.1-2.4,3-2.7A164.6,164.6,0,0,1,779,385q-56.28,102.89-170.95,127.7c-32.19,7-64.76,8.22-97.54,5.68a367.17,367.17,0,0,1-38.46-4.6c-15.33-2.82-29.85-8.5-44.23-14.35-43.22-17.61-80.86-43.52-113.36-76.94-40.68-41.82-68.3-90.89-79.6-148.29-11.54-58.56-4.79-114.76,26.68-166.52,12.86-21.17,28.24-40.71,42.47-61A8.46,8.46,0,0,1,305.44,45.71Z"/><path class="cls-2" d="M765.1,219c-25.8,47.5-64.38,76.72-118.92,83.11-24.62,2.89-49.16,1.7-73-4.5-28.52-7.41-54.11-21.29-76.83-40.15-31.2-25.91-54.07-57.64-64.83-97.05-12.87-47.1-5.95-91.09,22.95-131,5.1-7,10.26-14.06,15.39-21.08.58-.07,1,0,.57.71-6.29,13.72-10.91,27.92-12.78,43a151.79,151.79,0,0,0,10.81,78.23c26.93,64.68,74.65,106,142.41,123.68,26.58,6.92,53.72,9.3,81.14,4.65,28.47-4.83,52.5-17.55,71.3-39.7a8.14,8.14,0,0,1,.85-.81C765,217.85,765.39,218.06,765.1,219Z"/><path class="cls-10" d="M765.1,219l-1-1c.5-.73,1-1.48,1.52-2.18a7.89,7.89,0,0,1,1.19-.9C767,216.85,766,217.89,765.1,219Z"/><path class="cls-11" d="M470.42,9l-.57-.71,1.91-2.8A4.36,4.36,0,0,1,470.42,9Z"/></svg>