<svg id="Layer_1" data-name="Layer 1" xmlns="http://www.w3.org/2000/svg" viewBox="0 0 792 428.06"><defs><style>.cls-1{fill:#fefefe;}.cls-2{fill:#484c88;}.cls-3{fill:#adb1d4;}.cls-4{fill:#6d71a4;}.cls-5{fill:#6a6ea2;}.cls-6{fill:#7276a8;}.cls-7{fill:#7074a6;}.cls-8{fill:#676ba0;}.cls-9{fill:#7377a9;}.cls-10{fill:#63679d;}.cls-11{fill:#777bab;}.cls-12{fill:#5f639a;}.cls-13{fill:#6f73a5;}.cls-14{fill:#5b5f97;}.cls-15{fill:#575b94;}.cls-16{fill:#545791;}.cls-17{fill:#7b7fae;}.cls-18{fill:#4f538e;}.cls-19{fill:#4b4f8b;}.cls-20{fill:#7e82b1;}.cls-21{fill:#8387b4;}.cls-22{fill:#a3a7cd;}.cls-23{fill:#868ab7;}.cls-24{fill:#a8acd1;}.cls-25{fill:#8a8eba;}.cls-26{fill:#9ea2c9;}.cls-27{fill:#8e92bd;}.cls-28{fill:#4d518c;}.cls-29{fill:#a5a9ce;}.cls-30{fill:#9296c0;}.cls-31{fill:#8286b4;}.cls-32{fill:#969ac3;}.cls-33{fill:#9a9ec6;}.cls-34{fill:#767aab;}.cls-35{fill:#7a7eae;}.cls-36{fill:#8b8fba;}.cls-37{fill:#6b6fa3;}.cls-38{fill:#585c94;}.cls-39{fill:#51558f;}.cls-40{fill:#545892;}.cls-41{fill:#9da1c8;}.cls-42{fill:#6e72a5;}.cls-43{fill:#767ab2;}.cls-44{fill:#a9add1;}.cls-45{fill:#a1a5cb;}.cls-46{fill:#c1c3dc;}.cls-47{fill:#777bb2;}</style></defs><title>php</title><path class="cls-1" d="M396.23,428.69q-197,0-393.94.07c-2.6,0-3-.62-3-3.05Q-.57,214.33-.69,3c0-2.48.45-3,3-3q393.78.12,787.57,0c2.72,0,3.12.69,3.12,3.21q-.11,211.37,0,422.74c0,2.28-.47,2.87-2.83,2.87Q593.21,428.65,396.23,428.69Z"/><path class="cls-2" d="M616,48.22a374.62,374.62,0,0,1,72.4,34.2c24.83,15.17,47.36,33.08,65.22,56.33C767,156.19,776.52,175.4,780,197.33c3.82,24.25-.4,47.22-11.39,69-12,23.77-29.7,42.77-50.31,59.22C688.9,349,655.8,365.79,620.81,379,583,393.34,543.93,402.89,504,409a685.48,685.48,0,0,1-78.2,7.44c-1,0-2,0-3.08-.06a11,11,0,0,1-3.66.22c-.56,0-1.34.26-1.53-.58-.15-.66.32-1.16.76-1.59a20.06,20.06,0,0,1,4.4-2.81c6.32-3.42,12.67-6.8,18.4-11.21,4.24-1.67,8.77-1.15,13.15-1.49q25-2,49.74-5.8a593.55,593.55,0,0,0,73.77-16,466.76,466.76,0,0,0,71.81-26.87c22.84-10.86,44.4-23.75,63.76-40.08,17.43-14.71,32.33-31.56,42.17-52.4,7.31-15.49,11-31.79,9.9-48.93-1.57-23.75-11-44.39-25.61-62.94-18.1-23-41-40.14-66.12-54.7C656,81,637.48,72.63,618.5,65.28c-1.42-.55-3-.86-3.47-2.71-.36-3.58-.26-7.18-.7-10.76C614.17,50.51,613.7,48.62,616,48.22Z"/><path class="cls-3" d="M82.86,96.56C89.38,91,96.73,86.59,104,82.15c29-17.66,60.07-30.87,92.39-41.14a594.2,594.2,0,0,1,81.21-19.45q24.33-4.11,48.85-6.53c10.33-1,20.7-1.78,31.1-2.18,11.52-.44,23-1.3,34.57-1a.59.59,0,0,1-.19.82c-2,.9-4.05.47-6.08.49s-2.61.64-1.69,2.59A74.84,74.84,0,0,1,387.64,24c.32.94.81,1.94,0,2.92a28.69,28.69,0,0,1-8.22,1.15c-6.48.23-13,.26-19.46.55-10.29.47-20.56,1.23-30.81,2.13q-29,2.57-57.6,7.81a560.59,560.59,0,0,0-92.24,24.67C151.23,73.51,124.44,86.38,99.5,103c-2.75,1.83-5.39,3.82-8.07,5.73-1.25.89-2.46,1.93-4.13,1.92-2.08-.59-2.35-2.35-2.65-4.1C84.08,103.21,84.06,99.78,82.86,96.56Z"/><path class="cls-4" d="M138.11,365c-20.28-9.57-39.72-20.54-57.53-34.24,1.73-.65,2.1-.64,4.54.75,4.48,2.55,8.81,5.36,13.33,7.83A303.76,303.76,0,0,0,141.78,359a298.25,298.25,0,0,0,51.39,13.46c2,.33,3.91.2,5.85.4,7.51,2.26,15.14,4.09,22.65,6.34,1,.31,2.62.17,2.55,2-3.36,1.67-6.94.87-10.33.54a311.33,311.33,0,0,1-69.63-15C142.24,366.06,140.41,364.65,138.11,365Z"/><path class="cls-5" d="M138.11,365c.95-1.23,2-.53,3.06-.18a325.64,325.64,0,0,0,42.37,11.57c9,1.75,18.08,3.24,27.25,4.12a129.15,129.15,0,0,0,13.47.51c1-.91,2.1-.63,3.19-.33,7.45,2,15,3.58,22.46,5.42,1.06.26,2.94-.2,2.74,2a9.83,9.83,0,0,1-6.07,1.87,96.33,96.33,0,0,1-11.4,0c-8.29-.74-16.62-.61-24.88-1.75-6-.83-12.05-1.29-18-2.41a2.33,2.33,0,0,0-1.5.12,378.08,378.08,0,0,1-37.43-14C148.22,369.72,143.19,367.28,138.11,365Z"/><path class="cls-6" d="M37,288.1a86.37,86.37,0,0,1-11.74-18.39c1-1.34,1.11-1.38,2.32-.5s2.15,2.48,3.27,3.69c18.21,19.68,38.41,37,61.39,50.89A127.39,127.39,0,0,0,110,333.18c4.61,1.85,8.63,4.77,13,7.15,9.48,5.21,19.23,9.87,29,14.48.94.45,2.31.52,2.44,2-1.78,1.41-3.6.42-5.3-.07a166.1,166.1,0,0,1-20.85-7.85c-17.47-7.76-34.43-16.52-50.15-27.49a268,268,0,0,1-33-26.53C42.52,292.45,39.55,290.54,37,288.1Z"/><path class="cls-7" d="M37,288.1c3.24,1.27,5.77,3.6,8.21,5.91a268.84,268.84,0,0,0,49.24,36.9A288.24,288.24,0,0,0,147,355.35c2.33.8,4.68,1.64,7.21,1.48,1.62-.63,3,.21,4.4.79,6.69,2.85,13.47,5.45,20.28,8,1.24.47,2.92.55,3.32,2.32-1.67,1.37-3.55.87-5.32.46a294.45,294.45,0,0,1-61-21.13A301,301,0,0,1,63,315c-3.43-2.63-6.26-6-10-8.22A125.58,125.58,0,0,1,37,288.1Z"/><path class="cls-8" d="M190.79,385.84c-.29-.69-.27-1.23.7-1.11,7.08.87,14.19,1.58,21.24,2.71,3.15.5,6.33.61,9.45.8,5.2.33,10.42.66,15.64.77,5,.11,10.06.42,14.93-1.21,1.15-1.09,2.5-.72,3.79-.46,8,1.67,16.13,3.09,24.22,4.51,1.06.19,2.35.13,2.59,1.66-.5,1.56-1.88,1.77-3.19,2a167.81,167.81,0,0,1-17.46,1.87,233.09,233.09,0,0,1-27.72.48,1.43,1.43,0,0,0-.83.37A391.11,391.11,0,0,1,190.79,385.84Z"/><path class="cls-9" d="M109.65,333.9c-6.86-2.78-13.17-6.59-19.45-10.47a265.43,265.43,0,0,1-34-24.83,260.1,260.1,0,0,1-27.76-27.49c-.68-.79-1.23-3-3.18-1.4a82.83,82.83,0,0,1-8.66-19.87c-.13-1.38.73-1,1.31-.63a12.44,12.44,0,0,1,3.52,3.45c9.6,13,21.23,24.17,32.71,35.46a27.31,27.31,0,0,0,5.56,4.39,254.77,254.77,0,0,0,33.43,29.17c4.47,3.3,9.34,6,13.86,9.24C108.09,331.69,109.82,332,109.65,333.9Z"/><path class="cls-10" d="M234.15,398.24c-.54-1.95,1-1.1,1.66-1.11,4.64-.07,9.29.08,13.93-.06a281.39,281.39,0,0,0,31-2.47,3.46,3.46,0,0,0,2.4-1.23c1-1,2.29-.73,3.5-.55q12.36,1.88,24.77,3.35c1.08.13,2.34,0,2.83,1.39-1.66,1.76-3.93,2.11-6.13,2.57a283.45,283.45,0,0,1-35.39,5.32,8,8,0,0,0-2.07.56C258.35,403.9,246.17,401.47,234.15,398.24Z"/><path class="cls-11" d="M59.47,293c-2.64-1-4.53-3.11-6.47-5-6-5.79-12-11.57-17.64-17.68a203.56,203.56,0,0,1-14.44-17.1c-1.05-1.42-1.81-3.62-4.3-3.41a73.51,73.51,0,0,1-4.89-21.14c-.54-1.45,0-1.8,1.27-1.14a7.76,7.76,0,0,1,2.62,3c4.74,7.19,9.77,14.19,15.15,20.92a19.77,19.77,0,0,0,4.14,4.08,211,211,0,0,0,10.88,18.69,150.74,150.74,0,0,0,12.64,16.41C59,291.29,59.85,291.91,59.47,293Z"/><path class="cls-12" d="M270.61,406c.48-1.29,1.53-1.41,2.74-1.51A319.9,319.9,0,0,0,310,398.87c1.36-.27,2.47-1.52,4-1.16,1-1,2.24-.94,3.45-.82,6.7.65,13.39,1.35,20.11,1.79a3.12,3.12,0,0,1,2.48,1c0,1.33-1.18,1.22-2,1.47A245.77,245.77,0,0,1,301,410.19a4.73,4.73,0,0,0-1.16.42C290.05,409.41,280.29,408,270.61,406Z"/><path class="cls-13" d="M53,306.73c3.47.85,5.56,3.71,8.17,5.75a283.18,283.18,0,0,0,36.06,24.17,287.38,287.38,0,0,0,57.11,24.81c7.76,2.36,15.63,4.34,23.48,6.37a18.79,18.79,0,0,0,4.32.14,2.19,2.19,0,0,1,2.32-.34c4.41,1.4,8.83,2.79,13.17,4.42.64.24,1.39.54,1.24,1.5-8.09,0-15.85-2.1-23.62-3.88a289.83,289.83,0,0,1-62.38-22c-9.63-4.69-19-9.91-28.11-15.43a7.59,7.59,0,0,0-4.17-1.48A176,176,0,0,1,53,306.73Z"/><path class="cls-14" d="M299.85,410.61c1-1.67,2.92-1.36,4.44-1.69,11-2.43,22.09-4.64,32.77-8.4a13.84,13.84,0,0,1,3.05-.34c1.47-1.33,3.32-1,5-.88,4,.33,8,.65,12,.6a4.1,4.1,0,0,1,2.63.71c.5,2.6-1.71,3-3.24,3.61-4.7,1.86-9.54,3.32-14.36,4.86-5,1.59-10.17,2.64-15.05,4.65C318,413,308.89,412,299.85,410.61Z"/><path class="cls-15" d="M327.09,413.73c.4-1.86,2.14-1.81,3.4-2.14,7.89-2.12,15.66-4.65,23.42-7.19a20.28,20.28,0,0,0,6-3,3.56,3.56,0,0,1,2.83-.91,90.26,90.26,0,0,1,18.07.92c2.29,2-.16,2.63-1.21,3.15-4.58,2.3-9.44,4-14.2,5.87s-9.49,3.28-14.16,5.14C343.18,415.36,335.12,414.68,327.09,413.73Z"/><path class="cls-16" d="M351.26,415.59c.91-1.41,2.45-1.86,3.89-2.34q12.15-4,23.87-9.19a4.55,4.55,0,0,0,2.58-2,2.87,2.87,0,0,1,2.23-.89c6.15,0,12.31-.37,18.45.19,1.46.48,1.33,1.34.49,2.31a8.35,8.35,0,0,1-3.11,2c-7.33,3.27-14.53,6.85-22.07,9.75.72.51,2.05,0,2.13,1.41C370.22,416.8,360.73,416.38,351.26,415.59Z"/><path class="cls-17" d="M34.69,255.85c-3.41-1.13-4.78-4.35-6.77-6.85-4.91-6.17-9.42-12.64-13.77-19.23-.42-.64-.76-2.73-2.42-1.07a58.59,58.59,0,0,1-1.09-15c.44-1.2.11-2.44.21-3.65,0-.49-.13-1.09.51-1.3s1,.17,1.38.5a7.4,7.4,0,0,1,1.44,2c3.09,5.09,6.12,10.22,9.37,15.21a10.6,10.6,0,0,0,3.59,3.7c1.09,1.11,1.12,2.62,1.41,4a105.29,105.29,0,0,0,5.71,18.77C34.65,253.82,35.16,254.78,34.69,255.85Z"/><path class="cls-18" d="M379.72,416.8c-1.1-1.06-2.62-.06-4.21-1,4-2.47,8.37-3.69,12.37-5.62,4.35-2.1,8.76-4.07,13.15-6.08a4.59,4.59,0,0,0,2.26-2,2,2,0,0,1,1.59-.81c6.62.21,13.2-1.22,19.82-.5.92.4,1.54,1,.3,1.65-9.51,4.82-18.64,10.39-28.52,14.47Z"/><path class="cls-19" d="M396.48,416.89c.52-1.17,1.71-1.42,2.7-1.93,6.86-3.55,13.78-7,20.56-10.68,1.92-1,3.67-2.35,5.85-2.8,5.12-1.28,10.23-2.62,15.48-.66-3,3.86-7.72,5.31-11.59,8-3.7,2.53-8.18,3.78-12.05,7.34l5.27.24C414,417.3,405.22,417,396.48,416.89Z"/><path class="cls-20" d="M26.64,230.45c-1.75-.23-2.51-1.57-3.31-2.9Q18,218.77,12.63,210a5.71,5.71,0,0,0-1-.92c-1.2,1.42.2,3.32-1,4.58A79.84,79.84,0,0,1,13,192.64c2.14-.74,2.32,1.21,2.92,2.3,2.71,4.95,5.31,10,8.3,15,1-2.94,1-2.94,2.41-2.3a6.12,6.12,0,0,1,.3,3c-.89,5.66.18,11.27.41,16.9C27.34,228.6,27.49,229.63,26.64,230.45Z"/><path class="cls-21" d="M26,206.91c-1.39,1.28.06,3.23-1.2,4.79-2-1.89-3.06-4.35-4.33-6.61-2-3.5-3.77-7.09-5.65-10.64-.43-.8-.69-1.78-1.88-1.81a52,52,0,0,1,3.21-12.38c1.88-1.71,2.5.15,3,1.26,1.39,2.85,2.81,5.69,4.19,8.54a35.9,35.9,0,0,0,4.33,7.37C27.65,200.68,27.56,203.92,26,206.91Z"/><path class="cls-22" d="M62,113.37c3.36-3,6.53-6.31,10.39-8.74,2.32-.69,2.51,1,2.8,2.53.69,3.58.81,7.29,2.37,10.68a1.65,1.65,0,0,1-.42,2c-3.27,2.62-5.84,6-9.41,8.31a1.76,1.76,0,0,1-1.18.27c-1.38-.7-1.52-2.1-1.86-3.37C63.63,121.17,63,117.22,62,113.37Z"/><path class="cls-23" d="M27.25,197c-1.28,0-1.72-.95-2.18-1.89-2.16-4.45-4.34-8.89-6.49-13.35-.5-1-.84-2.23-2.41-1.5A57,57,0,0,1,21,167.84c1.8-.21,2.14,1.27,2.58,2.42,1.31,3.43,3,6.69,4.34,10.11a21,21,0,0,0,2.7,4.4C30,189,29.33,193.18,27.25,197Z"/><path class="cls-24" d="M77.46,118.33c-1.66-.24-1.58-1.74-1.79-2.81-.57-2.87-1-5.78-1.31-8.68-.15-1.35-.69-2.07-2-2.21a59.66,59.66,0,0,1,10.51-8.07c2.11.63,1.64,2.61,1.94,4.06.43,2.08.48,4.25.7,6.37a3.77,3.77,0,0,0,1.9,3.3,1.45,1.45,0,0,1-.57,1.63c-2.5,2.09-5,4.22-7.65,6.07A1.7,1.7,0,0,1,77.46,118.33Z"/><path class="cls-25" d="M30.34,184.61c-1.42,0-1.84-1.12-2.28-2.13-1.73-3.89-3.44-7.79-5.1-11.71-.47-1.13-.72-2.36-2-2.93a56.38,56.38,0,0,1,5.63-11.12c1.92.07,2,1.8,2.52,3,1.95,4.36,3,9.1,5.77,13.12C34.32,177.12,32.48,180.92,30.34,184.61Z"/><path class="cls-26" d="M62,113.37c2.37,1.79,1.66,4.68,2.45,7,.87,2.59.67,5.51,2.44,7.83-2,4-4.67,7.3-9.08,8.81-1.48-1.2-1.69-3-2.09-4.65-.85-3.47-2-6.87-2.51-10.42A86,86,0,0,1,62,113.37Z"/><path class="cls-27" d="M34.68,172.84c-3.07-1.82-3-5.35-4.38-8.09s-1.71-5.69-3.68-8a51.13,51.13,0,0,1,6.15-9.94c1.88-.14,2,1.43,2.45,2.59,1,2.7,1.85,5.46,2.77,8.18a13.14,13.14,0,0,0,2.38,3.95A23,23,0,0,1,34.68,172.84Z"/><path class="cls-28" d="M616,48.22c-1.45,1.22-1,3-.71,4.31.77,3.57.39,7.14.5,10.71-4.33.14-8-1.54-11.41-4.05-.44-4-.51-8-1-12-.14-1.13-.25-2.28.68-3.19C608,45.25,612.15,46.31,616,48.22Z"/><path class="cls-23" d="M467.09,15.44a52.78,52.78,0,0,1,11.28,1.2,110.73,110.73,0,0,1,3,11.9c.24,1.12.82,2.4-.32,3.44-3.8.54-7.52.43-11-1.31a121.16,121.16,0,0,1-3.46-13A2.34,2.34,0,0,1,467.09,15.44Z"/><path class="cls-29" d="M392.13,12.39c0-.17,0-.35,0-.52h24.07a3.06,3.06,0,0,1,2.06.47c-1.73,1.51-3.81.84-5.75.94s-3.7,0-5.55,0c-2.12,0-2.87.73-1.89,2.79s1.58,4.24,2.43,6.33c.54,1.33,1.08,2.7.44,4.17a1.81,1.81,0,0,1-.79.66,23.06,23.06,0,0,1-9,0c-2.44-2.65-2.74-6.29-4.27-9.37C393,16.13,391.62,14.53,392.13,12.39Z"/><path class="cls-30" d="M40.25,161.68c-2.22-.29-2.39-2.31-3-3.81-1.11-2.83-2-5.76-2.92-8.64-.32-.95-.42-2-1.58-2.44A45.09,45.09,0,0,1,39,138.14c2.22-.74,2.3,1.22,2.73,2.37,1.51,4,2.27,8.33,4.27,12.19C45,156.27,43.35,159.44,40.25,161.68Z"/><path class="cls-31" d="M481.34,31.6q-1.75-7-3.5-14c-.12-.48.2-.75.53-1a45.14,45.14,0,0,1,10.49,1.27,110.24,110.24,0,0,1,2.91,12.42,2.74,2.74,0,0,1-.63,2.83C487.68,33.84,484.31,34,481.34,31.6Z"/><path class="cls-32" d="M433.14,13c3.72.12,7.47-.37,11.15.61-3.46,1.82-3.46,1.82-2.11,5.91.47,1.46,1,2.9,1.38,4.38,1.05,4,.63,4.54-3.57,4.93-2.76,0-5.52.06-8.27,0-1.3,0-2.69.13-3.69-1,.09-1.34,1.23-1.32,2-1.27,2.33.17,2.18-1,1.72-2.63-.65-2.27-1.38-4.52-2.21-6.73C428,13,428.57,12.36,433.14,13Z"/><path class="cls-33" d="M53.16,122c2.17,2.9,2.07,6.55,3.16,9.8.58,1.73.87,3.56,1.89,5.13-.78,3.78-3.37,6.06-6.51,7.9-2-.41-2.23-2.19-2.68-3.69-1.1-3.69-2-7.43-3.32-11.07A46.81,46.81,0,0,1,53.16,122Z"/><path class="cls-34" d="M507.36,20.51c3.25.91,6.76.36,9.94,1.71,1.91,4.85,3.38,9.77,2.59,15.09-3.92,1.34-7.48.29-10.92-1.61-.69-3.91-1.19-7.86-2.18-11.72A3.49,3.49,0,0,1,507.36,20.51Z"/><path class="cls-8" d="M542.76,27.2a57.12,57.12,0,0,1,11.11,2.52c-.63,3.89.68,7.62,1,11.44.1,1.2.52,2.4-.25,3.53-3.52,1.22-6.52-.57-9.65-1.63a5.19,5.19,0,0,1-1.63-3.53c-.45-3.14-1.08-6.25-1.43-9.39C541.8,29.19,540.86,27.69,542.76,27.2Z"/><path class="cls-32" d="M45.7,130c1,.07,1.22.75,1.45,1.63.89,3.33,1.9,6.64,2.89,10,.34,1.14.4,2.51,2,2.73-.87,3.75-3.53,6.22-6.22,8.66-2.6-2.4-2.54-5.91-3.76-8.89-.85-2.07-.4-4.83-3.06-6A45.62,45.62,0,0,1,45.7,130Z"/><path class="cls-35" d="M507.36,20.51c-.09,4.4,1.79,8.46,2.16,12.79a3.83,3.83,0,0,1-.3,2c-3.4,1.63-6.52.8-9.54-1-1.05-4.17-1.83-8.42-2.77-12.62a2.49,2.49,0,0,1,.56-2.58A50.74,50.74,0,0,1,507.36,20.51Z"/><path class="cls-30" d="M440.44,27.89c2.77.4,3.49-.66,2.5-3.25-.91-2.39-1.61-4.86-2.41-7.29-1.15-3.54-1.08-3.64,2.53-3.72l1.23-.05c2.89.15,5.83-.32,8.66.62-2,.92-2.6,2.23-1.66,4.37a36.88,36.88,0,0,1,1.48,5c1.37,4.89.9,5.54-4.1,5.85a54.14,54.14,0,0,1-5.7-.06C442,29.26,440.65,29.45,440.44,27.89Z"/><path class="cls-36" d="M467.09,15.44c.23,4.33,2.18,8.26,2.81,12.5.12.8.19,1.61.29,2.42-.15.14-.29.37-.45.39-4.29.52-8.54.53-12.62-1.16-.05-.64.4-.93.89-1.05,1.86-.49,2-1.73,1.62-3.32-.62-2.48-1.44-4.91-2-7.39-.7-2.93-.3-3.33,2.79-3C462.64,14.87,464.92,14.6,467.09,15.44Z"/><path class="cls-33" d="M433.14,13c-4.36.13-4.31.13-2.68,4.26.9,2.27,1.46,4.66,2.28,7s.58,3.52-2.24,3.09a15.41,15.41,0,0,0-2.45,0,3,3,0,0,1-3.56.34c-2.26-4.28-3.27-9-4.93-13.51a1.73,1.73,0,0,1,.45-1.72C424.39,12.53,428.8,11.92,433.14,13Z"/><path class="cls-12" d="M561.27,31.51c3.09.87,6.38,1,9.33,2.4,1.32,2.5,1.16,5.3,1.64,8,.44,2.49.55,5,.94,7.52-3.7,1.16-6.72-.8-9.87-2.16A29.22,29.22,0,0,1,561.27,31.51Z"/><path class="cls-20" d="M497.47,19.08c0,2.89,1.09,5.57,1.63,8.35.42,2.21,1,4.37.82,6.64-2.85,1.26-7,.66-8.67-1.23-.37-4.45-1.84-8.68-2.59-13.06-.12-.67-.67-1.33.2-1.87A35.72,35.72,0,0,1,497.47,19.08Z"/><path class="cls-37" d="M542.76,27.2a59.29,59.29,0,0,0,2.39,15.54c-3.22.77-6.07-.48-9-1.6a4.61,4.61,0,0,1-1.53-2.93c-.47-3.44-1.3-6.81-1.7-10.26-.12-1-.65-2.3,1.08-2.58A37.2,37.2,0,0,1,542.76,27.2Z"/><path class="cls-10" d="M561.27,31.51c.84,5.19.91,10.49,2.46,15.56a11,11,0,0,1-9.29-2.47c-.55-3.79-1.12-7.57-1.62-11.37-.17-1.29-1.09-2.88,1-3.51C556.3,30.45,559,30.27,561.27,31.51Z"/><path class="cls-38" d="M579.92,36.52A34.06,34.06,0,0,1,588,38.84c.71,5,2.07,9.91.82,15-3.49,1.14-6.27-.36-8.92-2.38-1.38-4.26-1.32-8.74-1.85-13.12C577.89,37.24,578.11,35.87,579.92,36.52Z"/><path class="cls-39" d="M604,44c.38,4,.75,7.9,1.15,11.85a5.24,5.24,0,0,1-.53,3.56c-3.4,0-6.59-.42-8.76-3.5-.34-3.42-.41-6.85-.8-10.27-.16-1.46-.32-3.07.92-4.29A38.29,38.29,0,0,1,604,44Z"/><path class="cls-6" d="M519.75,37.17q-1.23-7.47-2.45-15c3.31.86,6.84.52,10.06,1.85-.86,3.26.65,6.28.91,9.43.16,1.91,1,3.81.09,5.74C525.21,39.74,522.16,39.76,519.75,37.17Z"/><path class="cls-27" d="M460.39,14.83c-2.26-.18-2.88.59-2,2.84A69.68,69.68,0,0,1,460.42,25c1,4,.9,4.08-3.25,4.12-3.22,1.58-6.35,1.34-8.05-.62,4,0,4,0,3.08-3.81-.57-2.26-1.22-4.51-1.93-6.74-1.15-3.64-1.18-3.63,2.68-3.75C455.44,14.34,458,13.86,460.39,14.83Z"/><path class="cls-40" d="M596,41.35c-.42,5,1.07,10,.57,15.07-3.18.75-5.79-.31-8-2.52.18-4.19-.52-8.31-1-12.44a4.69,4.69,0,0,1,.47-2.62A37.83,37.83,0,0,1,596,41.35Z"/><path class="cls-14" d="M579.92,36.52c-1.24.15-1.35.93-1.21,2,.61,4.3,1.17,8.61,1.74,12.92-2.89,1-5.26,0-7.42-1.88s-1-4.43-1.44-6.64c-.59-3-1.28-5.94-1-9A43.6,43.6,0,0,1,579.92,36.52Z"/><path class="cls-41" d="M420,12.38c.5,3.79,2.57,7.06,3.49,10.71.34,1.37,1,2.67.85,4.15a3.94,3.94,0,0,1-3.12,1c-3.47.07-6.93.12-10.4,0-1.21-.05-2.78.3-3.21-1.53v0c1.43-1.18,3.15-.73,4.77-.81,2.78-.15,3-.43,2.2-3.19-.63-2.18-1.58-4.25-2.3-6.4-.41-1.21-1.26-2.45-.32-3.81l6.29-.08Z"/><path class="cls-42" d="M528.42,39c-.82-4.34-1.65-8.68-2.44-13a1.46,1.46,0,0,1,1.38-1.93,20.64,20.64,0,0,1,6.68,1.3c-1.18,1.88-.09,3.75.31,5.46.78,3.34.47,6.91,2.13,10.05C533.54,41.36,530.76,41.14,528.42,39Z"/><path class="cls-43" d="M528.42,39l8.06,1.85,8.67,1.86c3.17.27,6.07,1.83,9.29,1.86l9.29,2.47,9.3,2.48c2.47.61,4.84,1.67,7.42,1.88a37.37,37.37,0,0,0,8.06,2.47,41.21,41.21,0,0,0,8,2.52c2.52,1.46,5.44,1.85,8.07,3l11.13,3.82c9.76,4.11,19.64,7.9,29.28,12.33A348.28,348.28,0,0,1,681.62,95c17.36,10.63,33.61,22.76,47.68,37.56,14.41,15.16,26.13,32.07,32.45,52.3a96,96,0,0,1,4.43,36.25c-1.81,23.07-11,43.3-25,61.45-12.39,16-27.37,29.3-43.83,41a304.47,304.47,0,0,1-42.24,25A469.21,469.21,0,0,1,571,379.82c-20.44,5.57-41.15,9.84-62,13.4-9.7,1.66-19.53,2.55-29.28,3.92-12.82,1.8-25.76,2.39-38.63,3.68-5.18-.38-10.3.87-15.48.65l-22.3.61-21.69,0c-7.21-.52-14.44-.76-21.67-.63a1.83,1.83,0,0,0-1.67-.59c-6.08.4-12.09-.91-18.15-.65-2.64-1.43-5.59-.58-8.38-1-5.81-.9-11.76-1-17.65-1.45-3.37-1.23-7-1-10.45-1.5-6.83-1-13.68-1.9-20.53-2.84-5.38-1-10.76-2.13-16.16-3.05-4.74-.8-9.36-2.27-14.19-2.52-7.61-1.86-15.21-3.75-22.84-5.54-1.88-.44-3.62-1.52-5.65-1.28-6.11-2.58-12.73-3.38-19-5.53-2.11-.73-4.29-1.27-6.43-1.9A110.56,110.56,0,0,0,182.13,368q-9.94-4-19.89-8c-2.66-1.07-5.33-2.11-8-3.16-8-3.92-16.09-7.77-24.08-11.76-6.15-3.08-12.12-6.51-18-10.11a17.74,17.74,0,0,0-2.53-1.06c-2.15-2.41-5.08-3.79-7.73-5.46a229.9,229.9,0,0,1-29.5-22.67,173.14,173.14,0,0,1-13-12.75A146.94,146.94,0,0,1,43,271.26c-3.05-5-6.35-9.84-8.3-15.41a97.51,97.51,0,0,1-7.42-24.06,1.93,1.93,0,0,0-.63-1.34c-1-4.43-.33-9-1.13-13.44-.6-3.33,1-6.69.51-10.1,0-3.36.82-6.61,1.23-9.91a73.38,73.38,0,0,1,3.09-12.39c.84-4.15,3-7.81,4.34-11.77q2.79-5.58,5.57-11.16L45.83,153q3.11-4.33,6.22-8.66c2.11-2.44,4.55-4.6,6.16-7.45a70.68,70.68,0,0,0,8.63-8.67l10.62-9.9a81.63,81.63,0,0,0,9.94-8c8.83-5.87,17.42-12.07,26.58-17.44a393.67,393.67,0,0,1,57.9-27.78,540.24,540.24,0,0,1,91.3-25.84c15.21-3,30.51-5.39,45.92-7.13,13.47-1.53,26.94-2.87,40.48-3.71,9.87-.62,19.72-1.18,29.61-1.2,2.87,0,5.74-.36,8.61-.55a11.58,11.58,0,0,1,9.91,0l9.91,0c2.53,1.24,5.21.43,7.82.56,3,.15,5.94,0,8.91,0l3.7,0c4.07,1.35,8.27.25,12.39.62,2.82,1.26,5.79.32,8.68.61,2.6,1.33,5.38.28,8.05.62,4.29.93,8.67,1,13,1.24a61.4,61.4,0,0,0,11.15,1.24,40.89,40.89,0,0,0,9.91,1.24,30,30,0,0,0,8.67,1.23,27.39,27.39,0,0,0,9.3,1.24,29.12,29.12,0,0,0,10.53,1.86A32.59,32.59,0,0,0,528.42,39Z"/><path class="cls-44" d="M397.71,26.63H387.8A97.36,97.36,0,0,0,382.89,15c-1.16-2.18-.27-2.71,1.82-2.64,2.47.09,5,0,7.42,0C394.31,17,396.82,21.51,397.71,26.63Z"/><path class="cls-45" d="M412,12.41c1.28,3.78,2.48,7.58,3.87,11.31.81,2.19.31,3.06-2.07,2.94-2-.11-4.1,0-6.15,0-.19-3.79-2-7.06-3.43-10.46s-1.36-3.76,2.52-3.77Z"/><path class="cls-1" d="M502.34,156.67c2.13-11.13,4.2-22.27,6.42-33.38a8.22,8.22,0,0,1,8.44-6.8c30.45,0,60.91-.3,91.36.19,16.39.26,32.15,4,45.83,13.78,14.13,10.15,22.24,24.08,23.89,41.26,3,31.61-6,59.33-28.4,82.25-14.88,15.23-33,24-54.14,26.7-17.68,2.27-35.44,1.6-53.17,1.63-2.72,0-3.7.82-4.18,3.41-2.63,14.18-5.42,28.33-8.14,42.49-1.08,5.6-4.08,8.11-9.89,8.11q-20.76,0-41.51,0c-7.09,0-10.62-4.18-9.29-11.2,2.74-14.46,5.58-28.91,8.33-43.12-16.06.8-32.09.25-48.1.35-6.63,0-10.26-4.56-9-11.07,5.81-29.94,11.68-59.86,17.43-89.81.64-3.31,1.22-6.66.59-10.13a4.28,4.28,0,0,0-3.16-3.71,29,29,0,0,0-9.11-1.55c-10.12-.09-20.24,0-30.35-.12-1.79,0-2.49.55-2.83,2.35q-10.19,52.95-20.5,105.89c-1.09,5.63-4.09,8.15-9.88,8.17q-20.6,0-41.2,0c-7.17,0-10.67-4.52-9.25-11.63,2.17-10.81,4.27-21.63,6.37-32.45a22.44,22.44,0,0,0,.14-2.58,145.39,145.39,0,0,1-10.62,14c-15.56,17.56-34.82,28-58.17,31-17.48,2.23-35,1.64-52.55,1.59-3.29,0-4.33.93-4.89,4.05-2.57,14.08-5.41,28.12-8.15,42.18-1,5.26-4.07,7.8-9.49,7.81q-20.91,0-41.81,0c-7,0-10.65-4.33-9.33-11.28,2.44-12.85,5-25.68,7.5-38.53q10.11-51.87,20.21-103.74,5.67-29.13,11.29-58.26c1.11-5.68,4.05-8,9.92-8q42.12,0,84.25,0c15.74,0,31.07,2.26,45.14,9.9q22.71,12.31,29.13,37.43a6.16,6.16,0,0,0,1.28,2.65c1-4.92,2-9.83,3-14.75q7.86-40.5,15.69-81c1.15-5.94,4-8.18,10.09-8.19q20.6,0,41.2,0c6.95,0,10.47,4.21,9.16,11.07-2.51,13.16-5.06,26.31-7.76,39.42-.59,2.85-.06,3.59,2.92,3.54,10-.19,20-.24,30.05,0,13.76.31,27.4,1.62,40.17,7.37q21.25,9.57,24,32.77c.56.57.41,1.28.4,2A4.08,4.08,0,0,1,502.34,156.67Z"/><path class="cls-46" d="M502.34,156.67a2.58,2.58,0,0,1-1.11,2.76v-2.76Z"/><path d="M223.06,124.79c12.32.18,27.29-.39,42.24.35a80.46,80.46,0,0,1,25.94,5.26c20.85,8.25,32.69,23.78,33.67,46,1.63,36.69-12.74,65.78-44.24,85.55-11.87,7.46-25.33,10.14-39.12,11.22-17.21,1.35-34.46.5-51.69.62-2.44,0-3.25.68-3.7,3.09-3,16.1-6.26,32.15-9.29,48.24-.41,2.16-1.1,2.79-3.32,2.77-12.8-.12-25.6-.17-38.39,0-2.92,0-3-.87-2.57-3.24q8.22-41.85,16.31-83.72,11-56.56,22-113.14c.47-2.44,1.28-3.13,3.71-3.12C189.86,124.84,205.14,124.79,223.06,124.79Z"/><path d="M558.17,273.89c-7.64,0-15.28.09-22.91-.05-2.21,0-3.2.48-3.63,2.81-3,16.19-6.27,32.35-9.31,48.55-.38,2-1,2.73-3.09,2.71-13.11-.09-26.22-.06-39.32,0-1.49,0-2.5.13-2.07-2.08q19.34-98.87,38.54-197.75c.31-1.61.07-3.35,2.86-3.33,30.54.3,61.1-.54,91.64.49,14.42.49,28.18,4,39.93,13,15.26,11.69,20.54,27.9,19.83,46.36-.82,21.38-7.16,40.87-21.15,57.48-15,17.85-34,28.25-57.32,30.68C580.84,273.9,569.51,273.83,558.17,273.89Z"/><path d="M409.45,157.5c-6.71,0-13.42.06-20.13,0-1.77,0-2.46.47-2.81,2.3q-10.75,55.85-21.61,111.66c-.36,1.86-.95,2.53-2.95,2.51-12.9-.1-25.81-.14-38.71,0-2.68,0-2.7-.89-2.29-3q8.51-43.37,16.92-86.76,10.71-55.05,21.36-110.13c.51-2.67,1.4-3.43,4.09-3.4,12.59.16,25.19.11,37.78,0,2.11,0,2.78.22,2.3,2.63-3.27,16.27-6.28,32.58-9.57,48.83-.51,2.53.28,2.63,2.33,2.64,15.89,0,31.79-.45,47.68.36,10.12.52,20.08,2,29.5,6.13,12.5,5.41,18.81,15.07,19.87,28.51.81,10.24-1.48,20.1-3.4,30C484.57,217,479.21,244,474,271.15c-.42,2.19-1.11,2.82-3.32,2.8q-19.5-.18-39,0c-2.48,0-2.83-.59-2.38-2.88q7.68-38.81,15.17-77.65c.89-4.55,1.79-9.11,2.51-13.68,2.24-14.27-3-20.77-17.42-21.83C422.86,157.41,416.16,157.57,409.45,157.5Z"/><path class="cls-1" d="M214.3,241.87c-7.62,0-13.3-.07-19,0-1.87,0-2.29-.53-1.94-2.31q7.89-40.18,15.68-80.38c.31-1.57.57-2.52,2.62-2.47,12.79.31,25.6-.44,38.37.61a53.71,53.71,0,0,1,14.76,3.13c8.78,3.32,13.28,9.9,13.89,19a74.43,74.43,0,0,1-8.15,39.17c-6.67,13.19-18.23,19.32-32.28,21.73C229.69,241.88,221,241.81,214.3,241.87Z"/><path class="cls-1" d="M559.81,241.87c-7.23,0-12.7-.11-18.17,0-2.38.07-3.2-.36-2.67-3,3.68-18.38,7.23-36.79,10.82-55.2q2.36-12.14,4.69-24.27c.3-1.58.5-2.77,2.76-2.71,12.69.32,25.39-.43,38.07.59a49.89,49.89,0,0,1,16.76,3.91c8.14,3.69,11.83,10.49,12.2,19,.63,14.83-2.41,28.92-10.17,41.72-6.83,11.27-17.68,16.2-30.12,18.44C575.39,241.91,566.72,241.83,559.81,241.87Z"/><path class="cls-47" d="M216.72,233.53c-4.53,0-7.94-.08-11.34,0-1.87.06-2.16-.45-1.79-2.31,3.74-18.87,7.37-37.77,11-56.67.49-2.52,1-5,1.48-7.57.18-1.06.49-1.74,1.71-1.69,13.56.5,27.22-1.36,40.66,1.92,7.07,1.73,11.73,5.62,12,13.28.46,14.35-2.35,27.91-10.93,39.73-5.74,7.92-14.48,10.52-23.59,12A100.44,100.44,0,0,1,216.72,233.53Z"/><path class="cls-47" d="M579.09,165.32c7.42,0,14.84-.23,22.19,1.27,11.11,2.28,14.86,6.2,14.79,17.38a68.32,68.32,0,0,1-7.37,30.69c-4.83,9.58-13,14.62-23.15,16.88-11.59,2.57-23.38,1.92-35.12,2-2.21,0-1.56-1.41-1.34-2.54q3.36-17.44,6.78-34.87c1.81-9.29,3.66-18.58,5.4-27.89.4-2.15,1.18-3.09,3.59-3C569.59,165.47,574.35,165.32,579.09,165.32Z"/></svg>