<svg id="Layer_1" data-name="Layer 1" xmlns="http://www.w3.org/2000/svg" viewBox="0 0 540.19 557.1"><defs><style>.cls-1{fill:#fefefe;}.cls-2{fill:#040404;}.cls-3{fill:#336791;}</style></defs><title>psql</title><path class="cls-1" d="M312.1,557.1q-154,0-308,.09c-3.43,0-4.1-.67-4.1-4.09q.17-200,.1-400c2,2.36,1.07,5.31,1.4,8C5.22,191,11.57,220.36,19.17,249.48c10,38.43,21.4,76.43,39.85,111.88,7.8,15,16.9,29,29.83,40.22,16.23,14.08,37.08,17.16,55.17,7.91,3.71-1.89,7-6,10.45-6.3,3.72-.29,6.36,5.05,10.07,7.27,18.58,11.09,38.84,12.93,59.75,11.14,8.51-.74,16.66-3.33,25.84-6.91,0,9.18-.27,17.34.05,25.48,1,25.47,2.93,50.75,12.67,74.83,8.78,21.71,23,36.66,46.8,40.92C310.55,556.09,311.74,555.76,312.1,557.1Z"/><path class="cls-2" d="M312.1,557.1c-.36-1.34-1.55-1-2.45-1.18-23.8-4.26-38-19.21-46.8-40.92-9.74-24.08-11.67-49.36-12.67-74.83-.32-8.14-.05-16.3-.05-25.48-9.18,3.58-17.33,6.17-25.84,6.91-20.91,1.79-41.17-.05-59.75-11.14-3.71-2.22-6.35-7.56-10.07-7.27-3.44.27-6.74,4.41-10.45,6.3-18.09,9.25-38.94,6.17-55.17-7.91-12.93-11.22-22-25.23-29.83-40.22-18.45-35.45-29.81-73.45-39.85-111.88-7.6-29.12-14-58.52-17.67-88.43-.33-2.64.61-5.59-1.4-8v-23c1.84-.9,1-2.64,1.07-4,1-10.77,2.25-21.5,5-32C14.9,60.44,33.38,34.48,65.55,19.56,86.06,10,107.88,7.32,130.27,7.78c26.85.54,52.81,5.89,78.32,13.89,2.43.77,4.64,2,7.54.36,25.25-14.34,52.7-17.78,81.08-15.32C312.59,8,327.89,10.63,343,5.07c1.69-.62,3.61-.6,5.37-1.07,7.15-1.88,14.7-1.45,21.74-3.9h37c3.39,2,7.27,1.37,10.91,1.89,42.08,6.12,77.19,24.69,104.42,57.7,7.52,9.12,11.71,19.61,13.66,31.1,4,23.89,1.13,47.5-3.58,70.91-11,54.75-32.05,105.68-59.61,154.06-.7,1.22-2,2.25-1.57,4.12A194.41,194.41,0,0,0,497,316.46c18.45-3.67,34.82-2,43.1,18.64v15c-5.37,11.8-14.08,20.62-24.57,28-24,16.88-51.16,22.32-79.89,22.09-7-.06-6.87-.06-7.9,6.85a82.56,82.56,0,0,0-.6,8.43c-1.17,24-3.29,47.78-10,71-10,34.61-31.13,57.72-67,65.88l-21,4.76ZM261.67,387.59c0,2.34,0,3.63,0,4.92-.07,26.17.3,52.31,2.42,78.41,1.32,16.23,4,32,13.2,46,8.76,13.3,20.41,22.1,36.5,24.47,17.75,2.61,34.37-1.65,50.59-8.21,18.3-7.4,30-20.88,35.88-39.62,4.28-13.58,5.91-27.65,7.77-41.65,3-22.28,5.53-44.61,8.27-66.91.24-2,0-3.86,3.38-3.1,17.64,4,35.18,1.91,52.48-2,18.25-4.16,34.16-12.94,46.93-26.81,4.31-4.68,7.35-10.25,4.11-16.78s-9.34-7-15.51-6.31c-8.08,1-16.08,2.69-24.17,3.65-11.42,1.35-22.86,2.3-34.13-1.4-3.59-1.18-4.75-2.12-2.25-6a515.42,515.42,0,0,0,60.46-131.3c8.27-27.67,14.44-55.79,14.23-84.85-.1-14-1.55-28.07-10.74-39.75-16.45-20.9-37.14-36.19-62.17-45.2C408,10.38,366.85,12.69,325.74,24.5c-2.23.64-4.27,1.31-6.73.72a153.36,153.36,0,0,0-23.16-3.66c-25.52-2.1-50.34.24-72.85,13.61-5.48,3.26-9.8,3.22-15.54,1.38-34.68-11.12-70-18.19-106.59-12.41C63.59,30,37.22,49.92,24.27,85.89c-8.44,23.44-10.06,47.92-7.52,72.46,3.08,29.82,9.89,59,17.43,88C43.69,282.91,54.69,319,72.07,352.7c6.73,13.09,14.4,25.51,25.54,35.44,15.34,13.69,33.28,13.77,48.43-.09a124.15,124.15,0,0,0,10.84-11.73c11.84-14,24-27.66,36.42-41.18,1.88-2.05,3.27-2.55,5.89-1.18a60.85,60.85,0,0,0,22.91,6.39c1.4.13,3-.23,4.1,1-6.6,12.23-16.52,19.5-30.35,21.74-8.5,1.39-17.07,3.05-24.68,7.5-9.39,5.51-10.61,14.91-3,22.41,5.39,5.31,12.17,8.15,19.32,9.85C214.14,409.22,239.08,406.58,261.67,387.59Z"/><path class="cls-1" d="M329.1,557.1l21-4.76c35.91-8.16,57-31.27,67-65.88,6.71-23.22,8.83-47,10-71a82.56,82.56,0,0,1,.6-8.43c1-6.91.86-6.91,7.9-6.85,28.73.23,55.87-5.21,79.89-22.09,10.49-7.37,19.2-16.19,24.57-28q0,101.49.09,203c0,3.42-.67,4.1-4.1,4.09Q432.61,557,329.1,557.1Z"/><path class="cls-1" d="M540.1,335.1c-8.28-20.67-24.65-22.31-43.1-18.64a194.41,194.41,0,0,1-25.67,3.42c-.44-1.87.87-2.9,1.57-4.12,27.56-48.38,48.58-99.31,59.61-154.06,4.71-23.41,7.62-47,3.58-70.91-2-11.49-6.14-22-13.66-31.1C495.2,26.68,460.09,8.11,418,2c-3.64-.52-7.52.1-10.91-1.89,43,0,86,0,129-.1,3.43,0,4.1.67,4.1,4.1Q540,169.6,540.1,335.1Z"/><path class="cls-1" d="M370.1.1c-7,2.45-14.59,2-21.74,3.9-1.76.47-3.68.45-5.37,1.07-15.1,5.56-30.4,3-45.78,1.64-28.38-2.46-55.83,1-81.08,15.32-2.9,1.64-5.11.41-7.54-.36-25.51-8-51.47-13.35-78.32-13.89C107.88,7.32,86.06,10,65.55,19.56,33.38,34.48,14.9,60.44,6.16,94.11c-2.74,10.52-4,21.25-5,32-.12,1.33.77,3.07-1.07,4V.1Z"/><path class="cls-1" d="M261.67,387.59c-22.59,19-47.53,21.63-74.16,15.29-7.15-1.7-13.93-4.54-19.32-9.85-7.63-7.5-6.41-16.9,3-22.41,7.61-4.45,16.18-6.11,24.68-7.5,13.83-2.24,23.75-9.51,30.35-21.74-1.08-1.26-2.7-.9-4.1-1A60.85,60.85,0,0,1,199.19,334c-2.62-1.37-4-.87-5.89,1.18-12.38,13.52-24.58,27.19-36.42,41.18A124.15,124.15,0,0,1,146,388.05c-15.15,13.86-33.09,13.78-48.43.09-11.14-9.93-18.81-22.35-25.54-35.44C54.69,319,43.69,282.91,34.18,246.37c-7.54-29-14.35-58.2-17.43-88-2.54-24.54-.92-49,7.52-72.46,13-36,39.32-55.86,76.6-61.75,36.64-5.78,71.91,1.29,106.59,12.41,5.74,1.84,10.06,1.88,15.54-1.38,22.51-13.37,47.33-15.71,72.85-13.61A153.36,153.36,0,0,1,319,25.22c2.46.59,4.5-.08,6.73-.72,41.11-11.81,82.25-14.12,123.17.6,25,9,45.72,24.3,62.17,45.2C520.27,82,521.72,96,521.82,110.05c.21,29.06-6,57.18-14.23,84.85a515.42,515.42,0,0,1-60.46,131.3c-2.5,3.89-1.34,4.83,2.25,6,11.27,3.7,22.71,2.75,34.13,1.4,8.09-1,16.09-2.68,24.17-3.65,6.17-.74,12.32-.13,15.51,6.31s.2,12.1-4.11,16.78c-12.77,13.87-28.68,22.65-46.93,26.81-17.3,3.94-34.84,6-52.48,2-3.37-.76-3.14,1.14-3.38,3.1-2.74,22.3-5.32,44.63-8.27,66.91-1.86,14-3.49,28.07-7.77,41.65-5.91,18.74-17.58,32.22-35.88,39.62-16.22,6.56-32.84,10.82-50.59,8.21-16.09-2.37-27.74-11.17-36.5-24.47-9.2-14-11.88-29.76-13.2-46-2.12-26.1-2.49-52.24-2.42-78.41C261.67,391.22,261.67,389.93,261.67,387.59ZM428,145.19c.54-2.29-.4-3.8-1-5.26C399.16,77.67,353.91,39.33,283.45,36.49c-27.95-1.13-53,6.85-72.89,27.59-10.72,11.2-18.44,24.38-24,38.81a194.53,194.53,0,0,0-12.84,57.65c1.83.38,2.86-.6,4-1.18,11.8-6,24.17-10.28,37.39-11.79,23.61-2.69,43.73,6.93,49.31,33.38,1.2,5.69,2.28,11.42,3.24,17.15,5.64,33.63,3.65,66.31-11.89,97.4-4.68,9.38-7.93,19.38-11.11,29.37-.68,2.13-1.32,3.56,2.26,3.53,17.55-.15,31.82,15.42,31,33.39a907.09,907.09,0,0,0,2.21,114.34c1.08,13.21,4.78,25.47,12.92,36.14a34.12,34.12,0,0,0,19.5,13.08c10.36,2.53,20.48.92,30.61-1.4,21.63-5,38-15.73,43.39-38.85.93-4.05,1.95-8.1,2.56-12.2,5.79-38.85,11.28-77.73,13.93-117,.86-12.73,6.91-22.14,19.22-26.62,3.64-1.33,2.85-2.49,1-4.71-5.93-7.21-11.72-14.58-15.64-23.11-5.77-12.57-13.06-24.32-19.29-36.64-4.43-8.75-8.88-17.52-12.73-26.53-7.29-17.06-13.25-34.52-12.57-53.47.66-18.77,11.5-32.65,29.49-37.56A123.35,123.35,0,0,1,405.32,145C412.9,143.8,420.53,144.65,428,145.19ZM201.48,50.85c-32-10.17-63.61-16.21-96.29-11.69C71.8,43.78,48.41,61.22,37.87,94.21c-5.39,16.88-6.74,34.22-6.34,51.77.4,17.9,4,35.37,7.58,52.81,8.53,41.26,19.29,81.89,35,121.08,7.38,18.43,15.6,36.46,28.79,51.63,13.36,15.38,24.57,15.34,37.67,0,12.76-15,25.5-29.94,39-44.19,2.95-3.09,2.54-4.54-.3-7.33-18.39-18.09-26-40.36-23.65-65.78,1.47-15.61,3.22-31.17,2.61-46.84-.91-23.65-1.7-47.22,2.78-70.68,5.43-28.52,14.81-55.23,33.53-78C196.62,56.17,198.86,53.8,201.48,50.85ZM350,35.34a15.45,15.45,0,0,0,1.56,1c38.15,18.35,64.8,47.87,84.32,84.92,10.05,19.08,12.6,38.61,8.67,59.38-3.81,20.16-3.75,40.29-.87,60.62,3.35,23.56,3.22,46.92-9.29,68.44-1,1.74-1.07,3.44.58,4.31,2.26,1.21,2.47-1.45,3.13-2.53,33.13-54.2,57.05-111.93,66.58-175.09A137,137,0,0,0,505,94.59c-2.1-13.37-11.37-22-20.7-30.29C445.11,29.73,399,26.05,350,35.34ZM254.88,226.21c-.77-15.32-2.62-30.53-6.66-45.36-3.2-11.7-10.82-17.46-22.86-17.93-17.29-.68-32.54,5.56-47.21,13.9-3.91,2.23-5.51,4.86-5.12,9.55a319.75,319.75,0,0,1-1.79,67.81A62.78,62.78,0,0,0,176,288.4c8.86,19.69,23.43,32.41,45,36.31,6.86,1.24,7,1.05,9-5.39a237.23,237.23,0,0,1,11.7-30.75C251.18,268.83,256.22,248.2,254.88,226.21ZM423,297.15a11.23,11.23,0,0,0,1.15-1.64c.69-1.7,1.38-3.39,2-5.12,5-14.76,4.32-29.85,2.48-45-2.13-17.54-4.13-35.06-1.45-52.74,1.42-9.37,3-18.73,3.54-28.22.09-1.72.5-3.23-2.1-3.52-11.49-1.27-22.92-1.77-34.08,2.12-9.25,3.22-14.37,9.74-15.56,19.45-1.4,11.37,1.34,22.15,4.71,32.82C392.73,244.27,409.53,269.52,423,297.15ZM181,383.33c4.51,3.3,9.4,4.37,14.28,5.31,25.06,4.83,47,.13,63.5-21,5.59-7.19,2.81-18.33-5.44-22.39-3.89-1.91-7.4-1.7-10.39,1.65-2.55,2.85-5.37,5.55-7.45,8.73-8.71,13.34-21.41,19.86-36.65,22.7C192.92,379.41,186.78,380.28,181,383.33Zm321.71-36a17.42,17.42,0,0,0-3.26-.34c-6.27.82-12.5,2-18.79,2.51-15.34,1.23-30.68,1.94-44.52-6.78-1.82-1.14-3.47-.44-5.24.08-8.82,2.59-11.76,6.06-12.64,15.08-.71,7.3-.38,8.16,6.81,9.22a109,109,0,0,0,54.49-5.84A75.18,75.18,0,0,0,502.71,347.37Z"/><path class="cls-3" d="M428,145.19c-7.49-.54-15.12-1.39-22.7-.16a123.35,123.35,0,0,0-12.76,2.27c-18,4.91-28.83,18.79-29.49,37.56-.68,18.95,5.28,36.41,12.57,53.47,3.85,9,8.3,17.78,12.73,26.53,6.23,12.32,13.52,24.07,19.29,36.64,3.92,8.53,9.71,15.9,15.64,23.11,1.82,2.22,2.61,3.38-1,4.71-12.31,4.48-18.36,13.89-19.22,26.62-2.65,39.23-8.14,78.11-13.93,117-.61,4.1-1.63,8.15-2.56,12.2C381.21,508.22,364.8,519,343.17,524c-10.13,2.32-20.25,3.93-30.61,1.4a34.12,34.12,0,0,1-19.5-13.08c-8.14-10.67-11.84-22.93-12.92-36.14a907.09,907.09,0,0,1-2.21-114.34c.79-18-13.48-33.54-31-33.39-3.58,0-2.94-1.4-2.26-3.53,3.18-10,6.43-20,11.11-29.37,15.54-31.09,17.53-63.77,11.89-97.4-1-5.73-2-11.46-3.24-17.15-5.58-26.45-25.7-36.07-49.31-33.38-13.22,1.51-25.59,5.76-37.39,11.79-1.14.58-2.17,1.56-4,1.18a194.53,194.53,0,0,1,12.84-57.65c5.58-14.43,13.3-27.61,24-38.81,19.86-20.74,44.94-28.72,72.89-27.59C353.91,39.33,399.16,77.67,427,139.93,427.62,141.39,428.56,142.9,428,145.19Z"/><path class="cls-3" d="M201.48,50.85c-2.62,2.95-4.86,5.32-6.93,7.84-18.72,22.74-28.1,49.45-33.53,78-4.48,23.46-3.69,47-2.78,70.68.61,15.67-1.14,31.23-2.61,46.84-2.39,25.42,5.26,47.69,23.65,65.78,2.84,2.79,3.25,4.24.3,7.33-13.54,14.25-26.28,29.23-39,44.19-13.1,15.36-24.31,15.4-37.67,0-13.19-15.17-21.41-33.2-28.79-51.63-15.68-39.19-26.44-79.82-35-121.08-3.6-17.44-7.18-34.91-7.58-52.81-.4-17.55.95-34.89,6.34-51.77,10.54-33,33.93-50.43,67.32-55C137.87,34.64,169.47,40.68,201.48,50.85Z"/><path class="cls-3" d="M350,35.34c49-9.29,95.16-5.61,134.31,29,9.33,8.25,18.6,16.92,20.7,30.29a137,137,0,0,1-.33,41.82c-9.53,63.16-33.45,120.89-66.58,175.09-.66,1.08-.87,3.74-3.13,2.53-1.65-.87-1.59-2.57-.58-4.31,12.51-21.52,12.64-44.88,9.29-68.44-2.88-20.33-2.94-40.46.87-60.62,3.93-20.77,1.38-40.3-8.67-59.38-19.52-37-46.17-66.57-84.32-84.92A15.45,15.45,0,0,1,350,35.34Z"/><path class="cls-3" d="M254.88,226.21c1.34,22-3.7,42.62-13.12,62.36a237.23,237.23,0,0,0-11.7,30.75c-2,6.44-2.14,6.63-9,5.39-21.61-3.9-36.18-16.62-45-36.31a62.78,62.78,0,0,1-4.78-34.22A319.75,319.75,0,0,0,173,186.37c-.39-4.69,1.21-7.32,5.12-9.55,14.67-8.34,29.92-14.58,47.21-13.9,12,.47,19.66,6.23,22.86,17.93C252.26,195.68,254.11,210.89,254.88,226.21Zm-25.65-36.1A15.09,15.09,0,0,0,240,184.66c2.86-3.24,2.85-6.57-.75-8.92-7-4.6-14.69-5.84-22.74-2.81-3.23,1.21-4.09,3.45-2.9,6.73C215.6,185.14,222.28,190,229.23,190.11Z"/><path class="cls-3" d="M423,297.15c-13.42-27.63-30.22-52.88-39.35-81.82-3.37-10.67-6.11-21.45-4.71-32.82,1.19-9.71,6.31-16.23,15.56-19.45,11.16-3.89,22.59-3.39,34.08-2.12,2.6.29,2.19,1.8,2.1,3.52-.53,9.49-2.12,18.85-3.54,28.22-2.68,17.68-.68,35.2,1.45,52.74,1.84,15.12,2.5,30.21-2.48,45-.58,1.73-1.27,3.42-2,5.12A11.23,11.23,0,0,1,423,297.15ZM406.5,167.35c-5,.47-9.57,1.06-13.6,3.68-3.39,2.2-3.61,4.84-1,7.86a13.75,13.75,0,0,0,18.42,1.93c3.13-2.25,6.64-5.1,5.55-9.21C414.66,167.09,409.75,168.11,406.5,167.35Z"/><path class="cls-3" d="M181,383.33c5.78-3.05,11.92-3.92,17.85-5,15.24-2.84,27.94-9.36,36.65-22.7,2.08-3.18,4.9-5.88,7.45-8.73,3-3.35,6.5-3.56,10.39-1.65,8.25,4.06,11,15.2,5.44,22.39-16.47,21.15-38.44,25.85-63.5,21C190.4,387.7,185.51,386.63,181,383.33Z"/><path class="cls-3" d="M502.71,347.37a75.18,75.18,0,0,1-23.15,13.93,109,109,0,0,1-54.49,5.84c-7.19-1.06-7.52-1.92-6.81-9.22.88-9,3.82-12.49,12.64-15.08,1.77-.52,3.42-1.22,5.24-.08,13.84,8.72,29.18,8,44.52,6.78,6.29-.5,12.52-1.69,18.79-2.51A17.42,17.42,0,0,1,502.71,347.37Z"/><path class="cls-1" d="M229.23,190.11c-6.95-.1-13.63-5-15.62-10.45-1.19-3.28-.33-5.52,2.9-6.73,8.05-3,15.71-1.79,22.74,2.81,3.6,2.35,3.61,5.68.75,8.92A15.09,15.09,0,0,1,229.23,190.11Z"/><path class="cls-1" d="M406.5,167.35c3.25.76,8.16-.26,9.37,4.26,1.09,4.11-2.42,7-5.55,9.21a13.75,13.75,0,0,1-18.42-1.93c-2.61-3-2.39-5.66,1-7.86C396.93,168.41,401.52,167.82,406.5,167.35Z"/></svg>